<?xml version="1.0" encoding="UTF-8"?> <svg xmlns="http://www.w3.org/2000/svg" width="331" height="36" viewBox="0 0 331 36" fill="none"> <path d="M144 18C144 8.05886 135.941 0 126 0C116.059 0 108 8.05886 108 18C108 27.9411 116.059 36 126 36C135.941 36 144 27.9411 144 18Z" fill="#393635"></path> <path d="M108 18C108 8.05886 103.97 0 99 0C94.0297 0 90 8.05886 90 18C90 27.9411 94.0297 36 99 36C103.97 36 108 27.9411 108 18Z" fill="#FECD4E"></path> <path d="M90 18C90 8.05886 81.9411 0 72 0C62.0589 0 54 8.05886 54 18C54 27.9411 62.0589 36 72 36C81.9411 36 90 27.9411 90 18Z" fill="#E32422"></path> <path d="M54 18C54 8.05886 41.9117 0 27 0C12.0883 0 0 8.05886 0 18C0 27.9411 12.0883 36 27 36C41.9117 36 54 27.9411 54 18Z" fill="#8B3D91"></path> <path d="M162.712 26H159.28V12.992H154.6V9.992H167.368V12.992H162.712V26ZM177.614 26H174.566V24.8C173.734 25.792 172.51 26.288 170.894 26.288C169.854 26.288 168.918 25.952 168.086 25.28C167.27 24.592 166.862 23.648 166.862 22.448C166.862 21.2 167.262 20.264 168.062 19.64C168.878 19.016 169.822 18.704 170.894 18.704C172.542 18.704 173.766 19.176 174.566 20.12V18.56C174.566 17.968 174.334 17.496 173.87 17.144C173.406 16.792 172.79 16.616 172.022 16.616C170.758 16.616 169.63 17.072 168.638 17.984L167.486 15.944C168.862 14.728 170.55 14.12 172.55 14.12C174.038 14.12 175.254 14.464 176.198 15.152C177.142 15.84 177.614 16.96 177.614 18.512V26ZM172.118 24.224C173.254 24.224 174.07 23.888 174.566 23.216V21.776C174.07 21.104 173.254 20.768 172.118 20.768C171.494 20.768 170.974 20.928 170.558 21.248C170.142 21.552 169.934 21.976 169.934 22.52C169.934 23.048 170.142 23.464 170.558 23.768C170.974 24.072 171.494 24.224 172.118 24.224ZM191.965 26H188.149L185.077 21.536L183.685 23.024V26H180.637V14.408H183.685V19.568L188.077 14.408H191.821L187.237 19.664L191.965 26ZM198.74 26.288C196.948 26.288 195.476 25.72 194.324 24.584C193.172 23.448 192.596 21.984 192.596 20.192C192.596 18.416 193.172 16.96 194.324 15.824C195.476 14.688 196.948 14.12 198.74 14.12C200.788 14.12 202.316 14.816 203.324 16.208L201.332 18.08C200.772 17.248 199.956 16.832 198.884 16.832C197.956 16.832 197.196 17.144 196.604 17.768C196.028 18.376 195.74 19.184 195.74 20.192C195.74 21.2 196.028 22.016 196.604 22.64C197.196 23.264 197.956 23.576 198.884 23.576C199.924 23.576 200.74 23.16 201.332 22.328L203.324 24.176C202.316 25.584 200.788 26.288 198.74 26.288ZM208.245 26H205.317V14.408H208.365V21.416L213.141 14.408H216.213V26H213.165V18.728L208.245 26ZM229.247 26H226.199V24.8C225.367 25.792 224.143 26.288 222.527 26.288C221.487 26.288 220.551 25.952 219.719 25.28C218.903 24.592 218.495 23.648 218.495 22.448C218.495 21.2 218.895 20.264 219.695 19.64C220.511 19.016 221.455 18.704 222.527 18.704C224.175 18.704 225.399 19.176 226.199 20.12V18.56C226.199 17.968 225.967 17.496 225.503 17.144C225.039 16.792 224.423 16.616 223.655 16.616C222.391 16.616 221.263 17.072 220.271 17.984L219.119 15.944C220.495 14.728 222.183 14.12 224.183 14.12C225.671 14.12 226.887 14.464 227.831 15.152C228.775 15.84 229.247 16.96 229.247 18.512V26ZM223.751 24.224C224.887 24.224 225.703 23.888 226.199 23.216V21.776C225.703 21.104 224.887 20.768 223.751 20.768C223.127 20.768 222.607 20.928 222.191 21.248C221.775 21.552 221.567 21.976 221.567 22.52C221.567 23.048 221.775 23.464 222.191 23.768C222.607 24.072 223.127 24.224 223.751 24.224ZM241.222 14.408V17.072H235.318V26H232.27V14.408H241.222ZM249.792 26.288C248.336 26.288 247.144 25.696 246.216 24.512V30.416H243.168V14.408H246.216V15.872C247.128 14.704 248.32 14.12 249.792 14.12C251.312 14.12 252.544 14.664 253.488 15.752C254.448 16.824 254.928 18.304 254.928 20.192C254.928 22.08 254.448 23.568 253.488 24.656C252.544 25.744 251.312 26.288 249.792 26.288ZM248.832 23.576C249.712 23.576 250.416 23.264 250.944 22.64C251.488 22.016 251.76 21.2 251.76 20.192C251.76 19.2 251.488 18.392 250.944 17.768C250.416 17.144 249.712 16.832 248.832 16.832C248.336 16.832 247.84 16.96 247.344 17.216C246.848 17.472 246.472 17.784 246.216 18.152V22.256C246.472 22.624 246.848 22.936 247.344 23.192C247.856 23.448 248.352 23.576 248.832 23.576ZM262.608 26.288C260.816 26.288 259.336 25.728 258.168 24.608C257 23.488 256.416 22.016 256.416 20.192C256.416 18.48 256.976 17.04 258.096 15.872C259.232 14.704 260.672 14.12 262.416 14.12C264.144 14.12 265.544 14.712 266.616 15.896C267.688 17.064 268.224 18.6 268.224 20.504V21.176H259.608C259.704 21.944 260.048 22.584 260.64 23.096C261.232 23.608 262 23.864 262.944 23.864C263.456 23.864 264.008 23.76 264.6 23.552C265.208 23.344 265.688 23.064 266.04 22.712L267.384 24.68C266.216 25.752 264.624 26.288 262.608 26.288ZM265.272 19.112C265.224 18.456 264.96 17.864 264.48 17.336C264.016 16.808 263.328 16.544 262.416 16.544C261.552 16.544 260.88 16.808 260.4 17.336C259.92 17.848 259.64 18.44 259.56 19.112H265.272ZM279.378 14.408V17.072H273.474V26H270.426V14.408H279.378ZM291.333 26H288.285V24.8C287.453 25.792 286.229 26.288 284.613 26.288C283.573 26.288 282.637 25.952 281.805 25.28C280.989 24.592 280.581 23.648 280.581 22.448C280.581 21.2 280.981 20.264 281.781 19.64C282.597 19.016 283.541 18.704 284.613 18.704C286.261 18.704 287.485 19.176 288.285 20.12V18.56C288.285 17.968 288.053 17.496 287.589 17.144C287.125 16.792 286.509 16.616 285.741 16.616C284.477 16.616 283.349 17.072 282.357 17.984L281.205 15.944C282.581 14.728 284.269 14.12 286.269 14.12C287.757 14.12 288.973 14.464 289.917 15.152C290.861 15.84 291.333 16.96 291.333 18.512V26ZM285.837 24.224C286.973 24.224 287.789 23.888 288.285 23.216V21.776C287.789 21.104 286.973 20.768 285.837 20.768C285.213 20.768 284.693 20.928 284.277 21.248C283.861 21.552 283.653 21.976 283.653 22.52C283.653 23.048 283.861 23.464 284.277 23.768C284.693 24.072 285.213 24.224 285.837 24.224ZM299.564 26H296.492V17.072H293.252V14.408H302.804V17.072H299.564V26ZM314.555 24.536C313.435 25.704 311.947 26.288 310.091 26.288C308.235 26.288 306.747 25.704 305.627 24.536C304.523 23.352 303.971 21.904 303.971 20.192C303.971 18.48 304.523 17.04 305.627 15.872C306.747 14.704 308.235 14.12 310.091 14.12C311.947 14.12 313.435 14.704 314.555 15.872C315.675 17.04 316.235 18.48 316.235 20.192C316.235 21.904 315.675 23.352 314.555 24.536ZM307.931 22.616C308.459 23.256 309.179 23.576 310.091 23.576C311.003 23.576 311.723 23.256 312.251 22.616C312.795 21.96 313.067 21.152 313.067 20.192C313.067 19.248 312.795 18.456 312.251 17.816C311.723 17.16 311.003 16.832 310.091 16.832C309.179 16.832 308.459 17.16 307.931 17.816C307.403 18.456 307.139 19.248 307.139 20.192C307.139 21.152 307.403 21.96 307.931 22.616ZM325.12 26.288C323.664 26.288 322.472 25.696 321.544 24.512V30.416H318.496V14.408H321.544V15.872C322.456 14.704 323.648 14.12 325.12 14.12C326.64 14.12 327.872 14.664 328.816 15.752C329.776 16.824 330.256 18.304 330.256 20.192C330.256 22.08 329.776 23.568 328.816 24.656C327.872 25.744 326.64 26.288 325.12 26.288ZM324.16 23.576C325.04 23.576 325.744 23.264 326.272 22.64C326.816 22.016 327.088 21.2 327.088 20.192C327.088 19.2 326.816 18.392 326.272 17.768C325.744 17.144 325.04 16.832 324.16 16.832C323.664 16.832 323.168 16.96 322.672 17.216C322.176 17.472 321.8 17.784 321.544 18.152V22.256C321.8 22.624 322.176 22.936 322.672 23.192C323.184 23.448 323.68 23.576 324.16 23.576Z" fill="#393635"></path> </svg> 