<?xml version="1.0" encoding="UTF-8"?> <svg xmlns="http://www.w3.org/2000/svg" width="56" height="60" viewBox="0 0 56 60" fill="none"> <circle opacity="0.1" cx="28" cy="28" r="28" fill="#FECD4E"></circle> <path d="M15 41V36L14 35.5H13L12 37V39.5L12.5 41L13.5 41.5L15 41Z" fill="#FFF0CA"></path> <path d="M44 41V36L43 35.5H42L41 37V39.5L41.5 41L42.5 41.5L44 41Z" fill="#FFF0CA"></path> <path d="M23.5 55.5L20.5 54.5L22.5 51.5V48.5L20 44L18.5 41V37L19.5 34.5L19 29.5L20 26.5L22.5 24.5L25.5 23.5L29.5 23L34.5 24.5L36.5 27.5V34.5L37.5 36V40.5L36.5 42.5L35 46L34 48.5L33.5 50.5L34.5 52.5L36 54L35 55L33 55.5L30.5 56H27L23.5 55.5Z" fill="#FFF0CA"></path> <path d="M28 12C14.7664 12 4 22.7664 4 36C4 49.2336 14.7664 60 28 60C41.2336 60 52 49.2336 52 36C52 22.7664 41.2336 12 28 12ZM28 58.4C15.6488 58.4 5.60003 48.3512 5.60003 36C5.60003 23.6488 15.6488 13.6 28 13.6C40.3512 13.6 50.4 23.6488 50.4 36C50.4 48.3512 40.3512 58.4 28 58.4Z" fill="#FECD4E"></path> <path d="M43.2002 34.5378V33.6001C43.2002 24.7776 36.3817 17.6001 28.0002 17.6001C19.6187 17.6001 12.8002 24.7776 12.8002 33.6001V34.5378C11.8692 34.8681 11.2002 35.7574 11.2002 36.8001V40.0001C11.2002 41.3233 12.277 42.4001 13.6002 42.4001C14.9234 42.4001 16.0002 41.3233 16.0002 40.0001V36.8001C16.0002 35.7574 15.3313 34.8681 14.4002 34.5378V33.6001C14.4002 25.6601 20.5009 19.2001 28.0002 19.2001C35.4994 19.2001 41.6002 25.6601 41.6002 33.6001V34.5378C40.6691 34.8681 40.0002 35.7574 40.0002 36.8001V40C40.0002 41.0231 40.6442 41.8984 41.5478 42.243C41.2392 44.1439 39.5868 45.6 37.6002 45.6C37.1578 45.6 36.8002 45.9584 36.8002 46.4C36.8002 46.8415 37.1578 47.1999 37.6002 47.1999C40.4583 47.1999 42.8224 45.0464 43.1579 42.2766C44.1109 41.9586 44.8002 41.0585 44.8002 39.9999V36.8C44.8002 35.7574 44.1313 34.8681 43.2002 34.5378ZM14.4002 40.0001C14.4002 40.4409 14.0418 40.8001 13.6002 40.8001C13.1586 40.8001 12.8002 40.4409 12.8002 40.0001V36.8001C12.8002 36.3593 13.1586 36.0002 13.6002 36.0002C14.0418 36.0002 14.4002 36.3593 14.4002 36.8001V40.0001ZM43.2002 40.0001C43.2002 40.4409 42.8418 40.8001 42.4002 40.8001C41.9586 40.8001 41.6002 40.4409 41.6002 40.0001V36.8001C41.6002 36.3593 41.9586 36.0002 42.4002 36.0002C42.8418 36.0002 43.2002 36.3593 43.2002 36.8001V40.0001Z" fill="#FECD4E"></path> <path d="M36.7519 53.4623L35.5014 52.7807C34.8222 52.4095 34.3999 51.6983 34.3999 50.9247V48.2775C34.9351 47.5767 36.4695 45.3887 37.2022 42.4871C37.9582 41.8808 38.3998 40.9735 38.3998 39.9999V36.8C38.3998 36.0295 38.1126 35.2824 37.5998 34.7V30.4448C37.6454 30.0055 37.8214 27.3856 35.927 25.2248C34.2839 23.3503 31.6166 22.4 27.9998 22.4C24.3838 22.4 21.7166 23.3504 20.0734 25.2248C18.179 27.3856 18.355 30.0055 18.3998 30.4448V34.7C17.8879 35.2824 17.5999 36.0295 17.5999 36.8V39.9999C17.5999 40.9735 18.0423 41.8808 18.7974 42.4871C19.5303 45.3887 21.0646 47.5767 21.5998 48.2775V50.9247C21.5998 51.6984 21.1782 52.4095 20.4982 52.7807L19.2486 53.4623C18.983 53.6071 18.8223 53.8895 18.8318 54.1911C18.8422 54.4935 19.0214 54.7639 19.2958 54.8911C22.0414 56.1583 24.9694 56.7999 27.9998 56.7999C31.0302 56.7999 33.959 56.1583 36.7039 54.8911C36.979 54.7639 37.1583 54.4935 37.1678 54.1911C37.1782 53.8895 37.0174 53.6071 36.7519 53.4623ZM21.4774 54.0598C22.5463 53.3814 23.1998 52.2014 23.1998 50.9246V47.9998C23.1998 47.8134 23.1334 47.631 23.0142 47.4879C22.9942 47.4639 21.0294 45.075 20.2862 41.8343C20.239 41.6311 20.1157 41.4543 19.9406 41.3414C19.4766 41.0423 19.1998 40.5406 19.1998 39.9999V36.7999C19.1998 36.3511 19.3909 35.9327 19.7358 35.6207C19.9038 35.4687 19.9998 35.2535 19.9998 35.0263V30.3999C19.9998 30.3648 19.9973 30.3304 19.9934 30.2951C19.9902 30.2736 19.719 28.0568 21.2766 26.2792C22.6023 24.7672 24.8646 24 27.9998 24C31.1246 24 33.3815 24.7616 34.7087 26.2632C36.2615 28.0184 36.011 30.2624 36.0063 30.2984C36.0022 30.332 35.9999 30.3664 35.9999 30.4V35.0264C35.9999 35.2536 36.0959 35.4688 36.2639 35.6208C36.6094 35.9328 36.7999 36.3512 36.7999 36.8V39.9999C36.7999 40.5408 36.5239 41.0424 36.0599 41.3415C35.8847 41.4543 35.7607 41.6311 35.7143 41.8344C34.9703 45.0752 33.0055 47.4639 32.9863 47.4879C32.8663 47.6311 32.7999 47.8135 32.7999 47.9999V50.9247C32.7999 52.2015 33.4543 53.3815 34.5231 54.0599C30.3495 55.5751 25.6511 55.5751 21.4774 54.0598Z" fill="#FECD4E"></path> </svg> 