<?xml version="1.0" encoding="UTF-8"?> <svg xmlns="http://www.w3.org/2000/svg" width="56" height="60" viewBox="0 0 56 60" fill="none"> <circle opacity="0.1" cx="28" cy="28" r="28" fill="#FECD4E"></circle> <circle cx="14.5" cy="26.5" r="1.5" fill="#FFF0CA"></circle> <circle cx="24.5" cy="22.5" r="1.5" fill="#FFF0CA"></circle> <circle cx="28.5" cy="31.5" r="1.5" fill="#FFF0CA"></circle> <circle cx="17.5" cy="34.5" r="1.5" fill="#FFF0CA"></circle> <path d="M37.5 40H35L34 40.5L32 41.5L31.5 43L32.5 46L43.5 57.5L46 59H48L50 58.5L51 56.5L50.5 53L41.5 44.5L37.5 40Z" fill="#FFF0CA"></path> <path d="M21.0329 15.8733C13.7776 15.8733 7.87329 21.7776 7.87329 29.0329C7.87329 36.2881 13.7776 42.1925 21.0329 42.1925C28.2882 42.1925 34.1925 36.2881 34.1925 29.0329C34.1925 21.7776 28.2882 15.8733 21.0329 15.8733ZM9.42259 29.0423C9.42259 22.6278 14.6279 17.4226 21.0329 17.4226C26.0115 17.4226 30.2531 20.5778 31.9064 24.9896L29.299 29.0896C29.2895 29.0896 29.2801 29.0896 29.2801 29.0896C29.2423 29.0801 29.1951 29.0801 29.1573 29.0707C29.0534 29.0518 28.9495 29.0423 28.8455 29.0423C28.8266 29.0423 28.8078 29.0329 28.7794 29.0329C28.7511 29.0329 28.7322 29.0423 28.7038 29.0423C28.666 29.0423 28.6188 29.0423 28.581 29.0423L27.5135 26.6995L26.5216 24.5172C26.9561 24.0921 27.2396 23.5064 27.2396 22.8451C27.2396 21.5603 26.2004 20.5212 24.9156 20.5212C23.6308 20.5212 22.5917 21.5603 22.5917 22.8451C22.5917 23.4025 22.7995 23.9126 23.1301 24.3094L20.6172 28.4944L18.4067 32.1787C18.3878 32.1693 18.3594 32.1787 18.3311 32.1693C18.2177 32.1504 18.0949 32.1315 17.9815 32.1315C17.9721 32.1315 17.9532 32.1315 17.9438 32.1315C17.906 32.1315 17.8776 32.1409 17.8493 32.1409C17.7832 32.1409 17.7265 32.1409 17.6603 32.1504L16.744 30.3177L15.7426 28.3244C16.1488 27.9087 16.3944 27.3419 16.3944 26.7184C16.3944 25.4336 15.3553 24.3944 14.0705 24.3944C12.7857 24.3944 11.7465 25.4336 11.7465 26.7184C11.7465 27.1907 11.8882 27.6347 12.1339 28.0032L9.64932 31.319C9.49817 30.5822 9.42259 29.817 9.42259 29.0423ZM29.5352 31.3474C29.5352 31.7725 29.1856 32.122 28.7605 32.122C28.3354 32.122 27.9859 31.7725 27.9859 31.3474C27.9953 31.0356 28.1843 30.7711 28.4488 30.6483C28.4677 30.6389 28.4866 30.6389 28.5149 30.6294C28.581 30.6011 28.6566 30.5916 28.7322 30.5822C28.7511 30.5822 28.77 30.5822 28.7889 30.5822C28.8739 30.5822 28.9589 30.6011 29.0345 30.6294C29.0628 30.6389 29.0817 30.6483 29.1101 30.6672C29.3651 30.7995 29.5352 31.0451 29.5352 31.3474ZM25.6714 22.8357C25.6714 23.1474 25.4824 23.4214 25.2179 23.5347C25.199 23.5442 25.1801 23.5536 25.1612 23.5631C25.0857 23.5914 25.0101 23.6009 24.9345 23.6103C24.9156 23.6103 24.9062 23.6103 24.8873 23.6103C24.8022 23.6103 24.7172 23.5914 24.6416 23.5631C24.6133 23.5536 24.5755 23.5347 24.5472 23.5159C24.3016 23.3836 24.1221 23.138 24.1221 22.8357C24.1221 22.4106 24.4716 22.061 24.8967 22.061C25.3218 22.061 25.6714 22.4106 25.6714 22.8357ZM18.709 34.4554C18.709 34.8805 18.3594 35.2301 17.9343 35.2301C17.5092 35.2301 17.1597 34.8805 17.1597 34.4554C17.1597 34.1437 17.3391 33.8792 17.5942 33.7564C17.632 33.7375 17.6603 33.728 17.6981 33.7186C17.7643 33.6997 17.8304 33.6808 17.8965 33.6808C17.9154 33.6808 17.9249 33.6808 17.9438 33.6808C18.0288 33.6808 18.1138 33.6997 18.1894 33.728C18.2177 33.7375 18.2555 33.7564 18.2838 33.7752C18.5295 33.9075 18.709 34.1531 18.709 34.4554ZM14.8357 26.7089C14.8357 27.0112 14.6562 27.2757 14.4011 27.3986C14.3445 27.4269 14.2878 27.4363 14.2311 27.4458C14.2028 27.4552 14.165 27.4647 14.1366 27.4647C14.0799 27.4647 14.0233 27.4647 13.976 27.4647C13.9477 27.4647 13.9193 27.4552 13.8816 27.4458C13.8154 27.4269 13.7587 27.408 13.7021 27.3797C13.4564 27.2474 13.2864 27.0018 13.2864 26.7089C13.2864 26.2838 13.6359 25.9343 14.061 25.9343C14.4862 25.9343 14.8357 26.2838 14.8357 26.7089ZM21.0329 40.6432C16.0827 40.6432 11.8599 37.5257 10.1972 33.1612L13.3714 28.9195C13.3998 28.929 13.4375 28.929 13.4659 28.9384C13.5509 28.9667 13.6454 28.9762 13.7399 28.9951C13.8154 29.0045 13.8816 29.014 13.9571 29.014C13.9949 29.014 14.0327 29.0234 14.0705 29.0234C14.1272 29.0234 14.1744 29.014 14.2311 29.0045C14.2783 29.0045 14.3161 29.0045 14.3634 29.0045L15.3553 30.9978L16.2716 32.8306C15.8654 33.2462 15.6198 33.813 15.6198 34.4365C15.6198 35.7213 16.659 36.7605 17.9438 36.7605C19.2285 36.7605 20.2677 35.7213 20.2677 34.4365C20.2677 33.8792 20.0599 33.369 19.7292 32.9723L21.9493 29.2785L24.4527 25.1029C24.4716 25.1029 24.4905 25.1029 24.4999 25.1124C24.6227 25.1313 24.7361 25.1502 24.8589 25.1502C24.8778 25.1502 24.8873 25.1596 24.9062 25.1596C24.9251 25.1596 24.9534 25.1502 24.9723 25.1502C25.0195 25.1502 25.0573 25.1502 25.1045 25.1502L26.0965 27.3324L27.164 29.6847C26.7294 30.1098 26.446 30.6955 26.446 31.3568C26.446 32.6416 27.4852 33.6808 28.77 33.6808C30.0548 33.6808 31.0939 32.6416 31.0939 31.3568C31.0939 30.8183 30.905 30.3271 30.5932 29.9303L32.4543 27.0112C32.5676 27.6725 32.6432 28.3432 32.6432 29.0329C32.6432 35.4285 27.4285 40.6432 21.0329 40.6432Z" fill="#FECD4E"></path> <path d="M50.6302 52.0646L38.812 40.2464C37.7351 39.1695 36.2614 38.7443 34.8538 38.9522C36.866 36.1559 38.0563 32.7266 38.0563 29.0329C38.0563 19.6426 30.4231 12 21.0329 12C11.6426 12 4 19.6426 4 29.0329C4 38.4231 11.6426 46.0657 21.0329 46.0657C24.7266 46.0657 28.1464 44.8754 30.9427 42.8727C30.9144 43.0899 30.886 43.3072 30.886 43.5339C30.886 44.7715 31.3678 45.9429 32.2464 46.8215L44.0646 58.6396C44.9431 59.5182 46.1051 60 47.3521 60C48.5896 60 49.7611 59.5182 50.6396 58.6396C51.5182 57.7611 52 56.5991 52 55.3521C51.9906 54.1051 51.5088 52.9431 50.6302 52.0646ZM21.0329 44.5164C12.4928 44.507 5.5493 37.5635 5.5493 29.0329C5.5493 20.4928 12.4928 13.5493 21.0329 13.5493C29.5729 13.5493 36.5164 20.4928 36.5164 29.0329C36.5164 37.5729 29.5729 44.5164 21.0329 44.5164ZM49.5343 57.5343C48.3629 58.7058 46.3224 58.7058 45.151 57.5343L33.3423 45.7162C32.7565 45.1305 32.4353 44.3558 32.4353 43.5245C32.4353 42.6932 32.7565 41.9185 33.3423 41.3328C33.9469 40.7282 34.7404 40.4259 35.5339 40.4259C36.3275 40.4259 37.121 40.7282 37.7256 41.3328L49.5343 53.1604C50.1201 53.7461 50.4413 54.5208 50.4413 55.3521C50.4413 56.174 50.1201 56.9486 49.5343 57.5343Z" fill="#FECD4E"></path> <path d="M41.4373 48.3399L40.3418 49.4354L41.4373 50.5309L42.5328 49.4354L41.4373 48.3399Z" fill="#FECD4E"></path> <path d="M43.63 50.5342L42.5342 51.6301L43.63 52.7165L44.7259 51.6301L43.63 50.5342Z" fill="#FECD4E"></path> <path d="M39.2471 46.1553L38.1516 47.2508L39.2471 48.3463L40.3426 47.2508L39.2471 46.1553Z" fill="#FECD4E"></path> </svg> 