<?xml version="1.0" encoding="UTF-8"?> <svg xmlns="http://www.w3.org/2000/svg" width="84" height="12" viewBox="0 0 84 12" fill="none"> <path d="M11.9828 4.55671C11.9414 4.42328 11.8314 4.32603 11.699 4.30588L7.97896 3.73919L6.31525 0.205426C6.25605 0.0796298 6.13382 0 6.00002 0C5.86619 0 5.74399 0.0796298 5.68476 0.205426L4.02099 3.73919L0.301004 4.30588C0.168606 4.32603 0.058567 4.42328 0.0172234 4.55669C-0.0241436 4.69012 0.0103562 4.83658 0.106192 4.93449L2.79793 7.68515L2.16259 11.5692C2.13995 11.7075 2.19418 11.8472 2.30244 11.9296C2.36368 11.9763 2.43622 12 2.50911 12C2.56508 12 2.62124 11.986 2.67266 11.9577L6 10.1238L9.32719 11.9576C9.44567 12.0229 9.58918 12.0121 9.69744 11.9296C9.80569 11.8472 9.85995 11.7074 9.83733 11.5691L9.20178 7.68515L11.8938 4.93447C11.9896 4.83658 12.0242 4.69012 11.9828 4.55671Z" fill="#FECD4E"></path> <path d="M29.9828 4.55671C29.9414 4.42328 29.8314 4.32603 29.699 4.30588L25.979 3.73919L24.3153 0.205426C24.2561 0.0796298 24.1338 0 24 0C23.8662 0 23.744 0.0796298 23.6848 0.205426L22.021 3.73919L18.301 4.30588C18.1686 4.32603 18.0586 4.42328 18.0172 4.55669C17.9759 4.69012 18.0104 4.83658 18.1062 4.93449L20.7979 7.68515L20.1626 11.5692C20.1399 11.7075 20.1942 11.8472 20.3024 11.9296C20.3637 11.9763 20.4362 12 20.5091 12C20.5651 12 20.6212 11.986 20.6727 11.9577L24 10.1238L27.3272 11.9576C27.4457 12.0229 27.5892 12.0121 27.6974 11.9296C27.8057 11.8472 27.86 11.7074 27.8373 11.5691L27.2018 7.68515L29.8938 4.93447C29.9896 4.83658 30.0242 4.69012 29.9828 4.55671Z" fill="#FECD4E"></path> <path d="M47.9828 4.55671C47.9414 4.42328 47.8314 4.32603 47.699 4.30588L43.979 3.73919L42.3153 0.205426C42.2561 0.0796298 42.1338 0 42 0C41.8662 0 41.744 0.0796298 41.6848 0.205426L40.021 3.73919L36.301 4.30588C36.1686 4.32603 36.0586 4.42328 36.0172 4.55669C35.9759 4.69012 36.0104 4.83658 36.1062 4.93449L38.7979 7.68515L38.1626 11.5692C38.1399 11.7075 38.1942 11.8472 38.3024 11.9296C38.3637 11.9763 38.4362 12 38.5091 12C38.5651 12 38.6212 11.986 38.6727 11.9577L42 10.1238L45.3272 11.9576C45.4457 12.0229 45.5892 12.0121 45.6974 11.9296C45.8057 11.8472 45.86 11.7074 45.8373 11.5691L45.2018 7.68515L47.8938 4.93447C47.9896 4.83658 48.0242 4.69012 47.9828 4.55671Z" fill="#FECD4E"></path> <path d="M65.9828 4.55671C65.9414 4.42328 65.8314 4.32603 65.699 4.30588L61.979 3.73919L60.3153 0.205426C60.2561 0.0796298 60.1338 0 60 0C59.8662 0 59.744 0.0796298 59.6848 0.205426L58.021 3.73919L54.301 4.30588C54.1686 4.32603 54.0586 4.42328 54.0172 4.55669C53.9759 4.69012 54.0104 4.83658 54.1062 4.93449L56.7979 7.68515L56.1626 11.5692C56.1399 11.7075 56.1942 11.8472 56.3024 11.9296C56.3637 11.9763 56.4362 12 56.5091 12C56.5651 12 56.6212 11.986 56.6727 11.9577L60 10.1238L63.3272 11.9576C63.4457 12.0229 63.5892 12.0121 63.6974 11.9296C63.8057 11.8472 63.86 11.7074 63.8373 11.5691L63.2018 7.68515L65.8938 4.93447C65.9896 4.83658 66.0242 4.69012 65.9828 4.55671Z" fill="#FECD4E"></path> <path d="M83.9828 4.55671C83.9414 4.42328 83.8314 4.32603 83.699 4.30588L79.979 3.73919L78.3153 0.205426C78.2561 0.0796298 78.1338 0 78 0C77.8662 0 77.744 0.0796298 77.6848 0.205426L76.021 3.73919L72.301 4.30588C72.1686 4.32603 72.0586 4.42328 72.0172 4.55669C71.9759 4.69012 72.0104 4.83658 72.1062 4.93449L74.7979 7.68515L74.1626 11.5692C74.1399 11.7075 74.1942 11.8472 74.3024 11.9296C74.3637 11.9763 74.4362 12 74.5091 12C74.5651 12 74.6212 11.986 74.6727 11.9577L78 10.1238L81.3272 11.9576C81.4457 12.0229 81.5892 12.0121 81.6974 11.9296C81.8057 11.8472 81.86 11.7074 81.8373 11.5691L81.2018 7.68515L83.8938 4.93447C83.9896 4.83658 84.0242 4.69012 83.9828 4.55671Z" fill="#BBBBBB"></path> </svg> 