<?xml version="1.0" encoding="UTF-8"?> <svg xmlns="http://www.w3.org/2000/svg" width="56" height="60" viewBox="0 0 56 60" fill="none"> <circle opacity="0.1" cx="28" cy="28" r="28" fill="#FECD4E"></circle> <g clip-path="url(#clip0)"> <path d="M40.5 27.5H16V28.5L14 31L11.5 32.5L10 33L9.5 39L11 40L14.5 42.5L16 45.5H40L40.5 44.5L42 41.5L46 40V33H44.5L41.5 30.5L40.5 27.5Z" fill="#FFF0CA"></path> <path d="M27.9558 30.6106C24.7507 30.6106 22.1521 33.2092 22.1521 36.4143C22.1521 39.6197 24.7507 42.218 27.9558 42.218C31.1613 42.218 33.7595 39.6197 33.7595 36.4143C33.7559 33.2108 31.1597 30.6142 27.9558 30.6106V30.6106ZM27.9558 40.5598C25.6665 40.5598 23.8103 38.704 23.8103 36.4143C23.8103 34.1249 25.6665 32.2688 27.9558 32.2688C30.2455 32.2688 32.1013 34.1249 32.1013 36.4143C32.0989 38.7028 30.2443 40.5573 27.9558 40.5598V40.5598Z" fill="#FECD4E"></path> <path d="M10.5447 28.1234H12.2029V26.4652H9.71558C9.25771 26.4652 8.88647 26.8365 8.88647 27.2943V29.7816H10.5447V28.1234Z" fill="#FECD4E"></path> <path d="M10.5447 43.0472H8.88647V45.5345C8.88647 45.9928 9.25771 46.3636 9.71558 46.3636H12.2029V44.7054H10.5447V43.0472Z" fill="#FECD4E"></path> <path d="M5.57031 23.9779V48.851C5.57031 49.3092 5.94155 49.6801 6.39941 49.6801H49.5127C49.971 49.6801 50.3418 49.3092 50.3418 48.851V23.9779C50.3418 23.5201 49.971 23.1488 49.5127 23.1488H6.39941C5.94155 23.1488 5.57031 23.5201 5.57031 23.9779V23.9779ZM7.22852 24.807H48.6836V48.0219H7.22852V24.807Z" fill="#FECD4E"></path> <path d="M46.196 32.2689C43.45 32.2665 41.2243 30.0407 41.2214 27.2943C41.2214 26.8365 40.8506 26.4652 40.3923 26.4652H15.5193C15.0614 26.4652 14.6902 26.8365 14.6902 27.2943C14.6878 30.0407 12.462 32.2665 9.71558 32.2689C9.25771 32.2689 8.88647 32.6402 8.88647 33.098V39.7308C8.88647 40.1891 9.25771 40.5599 9.71558 40.5599C12.462 40.5628 14.6878 42.7886 14.6902 45.5346C14.6902 45.9928 15.0614 46.3637 15.5193 46.3637H40.3923C40.8506 46.3637 41.2214 45.9928 41.2214 45.5346C41.2243 42.7886 43.45 40.5628 46.196 40.5599C46.6543 40.5599 47.0251 40.1891 47.0251 39.7308V33.098C47.0251 32.6402 46.6543 32.2689 46.196 32.2689V32.2689ZM45.3669 38.9532C42.3635 39.3369 39.9984 41.702 39.6146 44.7055H16.297C15.9132 41.702 13.5486 39.3369 10.5447 38.9532V33.8757C13.5486 33.4919 15.9132 31.1273 16.297 28.1234H39.6146C39.9984 31.1273 42.3635 33.4919 45.3669 33.8757V38.9532Z" fill="#FECD4E"></path> <path d="M46.196 26.4652H43.7087V28.1234H45.3669V29.7816H47.0251V27.2943C47.0251 26.8365 46.6543 26.4652 46.196 26.4652Z" fill="#FECD4E"></path> <path d="M45.3669 44.7054H43.7087V46.3636H46.196C46.6543 46.3636 47.0251 45.9928 47.0251 45.5345V43.0472H45.3669V44.7054Z" fill="#FECD4E"></path> <path d="M17.3605 16.6915C17.0034 16.8834 16.8286 17.2951 16.9243 17.6891L16.9392 17.7504C16.9784 17.912 17.0714 18.0555 17.2028 18.1573V18.1573C17.4383 18.3396 17.7601 18.3604 18.0215 18.2178C23.5759 15.1881 30.2211 14.8577 36.0598 17.341L33.3017 18.7196C32.892 18.9243 32.7258 19.4223 32.9305 19.8321V19.8321C33.1352 20.242 33.6336 20.4082 34.0434 20.2033L38.2758 18.0871C38.4734 17.9899 38.624 17.8175 38.6944 17.609C38.7649 17.4001 38.7495 17.1718 38.6515 16.9746L36.535 12.7416C36.3302 12.332 35.8322 12.1658 35.4225 12.3705V12.3705C35.0125 12.5752 34.8462 13.0736 35.0512 13.4835L36.0893 15.5601C29.9721 13.1713 23.126 13.5938 17.3605 16.6915Z" fill="#FECD4E"></path> <path d="M37.594 55.3767C37.9987 55.1627 38.1339 54.6541 37.9048 54.2578V54.2578C37.676 53.8619 37.1703 53.7279 36.7654 53.9404C31.2724 56.8223 24.7591 57.0983 19.0241 54.659L21.7823 53.28C22.1919 53.0752 22.3581 52.5772 22.1534 52.1675V52.1675C21.9487 51.7576 21.4503 51.5913 21.0404 51.7962L16.808 53.9124C16.3979 54.1173 16.2316 54.6156 16.4368 55.0253L18.5533 59.2584C18.7581 59.668 19.2561 59.8341 19.6657 59.6294V59.6294C20.0756 59.4247 20.2417 58.9265 20.0369 58.5167L18.9986 56.4398C25.0693 58.8094 31.8574 58.4106 37.594 55.3767Z" fill="#FECD4E"></path> </g> <defs> <clipPath id="clip0"> <rect width="48" height="48" fill="white" transform="translate(4 12)"></rect> </clipPath> </defs> </svg> 