<?xml version="1.0" encoding="UTF-8"?> <svg xmlns="http://www.w3.org/2000/svg" width="100" height="85" viewBox="0 0 100 85" fill="none"> <path d="M0 0H84C92.8366 0 100 7.16344 100 16V85H85C38.0558 85 0 46.9442 0 0Z" fill="#FECD4E"></path> <path d="M29.4213 43.984H21.7413V40.528H29.4213V43.984ZM39.431 50.384C37.5537 50.384 35.8897 50.0747 34.439 49.456C32.9883 48.816 31.847 47.984 31.015 46.96L33.383 43.92C34.1083 44.6667 35.0043 45.264 36.071 45.712C37.1377 46.1387 38.2043 46.352 39.271 46.352C40.551 46.352 41.543 46.1067 42.247 45.616C42.951 45.104 43.303 44.4427 43.303 43.632C43.303 42.7787 42.9617 42.16 42.279 41.776C41.5963 41.3707 40.5083 41.168 39.015 41.168C37.671 41.168 36.7857 41.1893 36.359 41.232V37.136C36.615 37.1573 37.5003 37.168 39.015 37.168C41.639 37.168 42.951 36.4107 42.951 34.896C42.951 34.0853 42.5777 33.4667 41.831 33.04C41.1057 32.592 40.1563 32.368 38.983 32.368C36.9137 32.368 35.111 33.104 33.575 34.576L31.303 31.728C33.3083 29.4667 36.0283 28.336 39.463 28.336C41.959 28.336 43.9217 28.8587 45.351 29.904C46.8017 30.9493 47.527 32.3573 47.527 34.128C47.527 35.408 47.0683 36.4853 46.151 37.36C45.2337 38.2133 44.135 38.7573 42.855 38.992C44.1137 39.12 45.255 39.6427 46.279 40.56C47.3243 41.456 47.847 42.64 47.847 44.112C47.847 45.968 47.079 47.4827 45.543 48.656C44.007 49.808 41.9697 50.384 39.431 50.384ZM64.0363 48.752C62.6709 49.84 61.0176 50.384 59.0763 50.384C57.1349 50.384 55.4709 49.84 54.0843 48.752C52.7189 47.6427 51.7376 46.2773 51.1403 44.656C50.5429 43.0347 50.2443 41.264 50.2443 39.344C50.2443 37.424 50.5429 35.6533 51.1403 34.032C51.7376 32.4107 52.7189 31.056 54.0843 29.968C55.4709 28.88 57.1349 28.336 59.0763 28.336C61.0176 28.336 62.6709 28.88 64.0363 29.968C65.4016 31.056 66.3829 32.4107 66.9803 34.032C67.5989 35.6533 67.9083 37.424 67.9083 39.344C67.9083 41.264 67.5989 43.0347 66.9803 44.656C66.3829 46.2773 65.4016 47.6427 64.0363 48.752ZM55.8763 44.432C56.5589 45.712 57.6256 46.352 59.0763 46.352C60.5269 46.352 61.5829 45.712 62.2443 44.432C62.9269 43.152 63.2683 41.456 63.2683 39.344C63.2683 37.232 62.9269 35.5467 62.2443 34.288C61.5829 33.008 60.5269 32.368 59.0763 32.368C57.6256 32.368 56.5589 33.008 55.8763 34.288C55.1936 35.5467 54.8523 37.232 54.8523 39.344C54.8523 41.456 55.1936 43.152 55.8763 44.432ZM75.24 38.96C73.64 38.96 72.3387 38.4693 71.336 37.488C70.3333 36.4853 69.832 35.2267 69.832 33.712C69.832 32.176 70.3333 30.896 71.336 29.872C72.3387 28.848 73.64 28.336 75.24 28.336C76.8613 28.336 78.1733 28.848 79.176 29.872C80.1787 30.896 80.68 32.176 80.68 33.712C80.68 35.2267 80.1787 36.4853 79.176 37.488C78.1733 38.4693 76.8613 38.96 75.24 38.96ZM75.56 50H73.16L86.792 28.656H89.224L75.56 50ZM90.888 48.88C89.8853 49.8827 88.584 50.384 86.984 50.384C85.384 50.384 84.0827 49.8827 83.08 48.88C82.0773 47.8773 81.576 46.6187 81.576 45.104C81.576 43.568 82.0773 42.288 83.08 41.264C84.0827 40.24 85.384 39.728 86.984 39.728C88.584 39.728 89.8853 40.24 90.888 41.264C91.912 42.288 92.424 43.568 92.424 45.104C92.424 46.6187 91.912 47.8773 90.888 48.88ZM75.24 36.464C75.9867 36.464 76.5947 36.2187 77.064 35.728C77.5333 35.216 77.768 34.544 77.768 33.712C77.768 32.8373 77.5333 32.144 77.064 31.632C76.5947 31.12 75.9867 30.864 75.24 30.864C74.4933 30.864 73.8853 31.12 73.416 31.632C72.9467 32.144 72.712 32.8373 72.712 33.712C72.712 34.5227 72.9467 35.184 73.416 35.696C73.9067 36.208 74.5147 36.464 75.24 36.464ZM85.16 47.152C85.6293 47.6427 86.2373 47.888 86.984 47.888C87.7307 47.888 88.3387 47.6427 88.808 47.152C89.2987 46.64 89.544 45.9573 89.544 45.104C89.544 44.2293 89.2987 43.536 88.808 43.024C88.3387 42.512 87.7307 42.256 86.984 42.256C86.2373 42.256 85.6293 42.512 85.16 43.024C84.6907 43.536 84.456 44.2293 84.456 45.104C84.456 45.9573 84.6907 46.64 85.16 47.152Z" fill="#8B3D91"></path> </svg> 