<?xml version="1.0" encoding="UTF-8"?> <svg xmlns="http://www.w3.org/2000/svg" width="560" height="239" viewBox="0 0 560 239" fill="none"> <mask id="mask0" mask-type="alpha" maskUnits="userSpaceOnUse" x="0" y="0" width="560" height="239"> <rect width="560" height="239" rx="24" fill="#F9F9F9"></rect> </mask> <g mask="url(#mask0)"> <circle cx="330" cy="162" r="30" fill="#8B3D91"></circle> <circle cx="53" cy="59" r="37" fill="#8B3D91"></circle> <path d="M38.8281 68.8906H39.9219V69.9844H38.8281V68.8906Z" fill="#D0A7D3"></path> <path d="M65.0781 68.8906H66.1719V69.9844H65.0781V68.8906Z" fill="#D0A7D3"></path> <path d="M57.9688 64.5156H47.0312C46.7294 64.5156 46.4844 64.7606 46.4844 65.0625V67.25C46.4844 67.5519 46.7294 67.7969 47.0312 67.7969H57.9688C58.2706 67.7969 58.5156 67.5519 58.5156 67.25V65.0625C58.5156 64.7606 58.2706 64.5156 57.9688 64.5156ZM57.4219 66.7031H47.5781V65.6094H57.4219V66.7031Z" fill="#D0A7D3"></path> <path d="M69.4531 60.6875V58.5C69.4531 58.1981 69.2081 57.9531 68.9062 57.9531H65.625C65.4177 57.9531 65.2285 58.0702 65.1355 58.2555L64.7538 59.0184L62.1223 54.4132C61.443 53.2238 60.1688 52.4844 58.7989 52.4844H46.2011C44.8312 52.4844 43.5575 53.2238 42.8772 54.4132L40.2456 59.0184L39.8639 58.2555C39.7715 58.0702 39.5823 57.9531 39.375 57.9531H36.0938C35.7919 57.9531 35.5469 58.1981 35.5469 58.5V60.6875C35.5469 60.9894 35.7919 61.2344 36.0938 61.2344H38.4437L35.7377 63.5537C35.6163 63.6576 35.5469 63.8091 35.5469 63.9688V68.3438C35.5469 69.3839 35.9652 70.3273 36.6406 71.018V73.8125C36.6406 74.717 37.3767 75.4531 38.2812 75.4531H42.6562C43.5608 75.4531 44.2969 74.717 44.2969 73.8125V72.1719H60.7031V73.8125C60.7031 74.717 61.4392 75.4531 62.3438 75.4531H66.7188C67.6233 75.4531 68.3594 74.717 68.3594 73.8125V71.018C69.0348 70.3273 69.4531 69.3839 69.4531 68.3438V63.9688C69.4531 63.8091 69.3837 63.6576 69.2623 63.5537L66.5563 61.2344H68.9062C69.2081 61.2344 69.4531 60.9894 69.4531 60.6875ZM43.8271 54.9557C44.3127 54.1059 45.2222 53.5781 46.2011 53.5781H58.7989C59.7778 53.5781 60.6873 54.1059 61.1729 54.9557L64.1359 60.1406H63.2002L60.7152 55.9991C60.2246 55.1805 59.3255 54.6719 58.3707 54.6719H46.6293C45.6745 54.6719 44.7759 55.1805 44.2848 55.9991L41.7998 60.1406H40.8641L43.8271 54.9557ZM61.9248 60.1406H43.0752L45.2222 56.5624C45.517 56.0708 46.0562 55.7656 46.6293 55.7656H58.3713C58.9444 55.7656 59.483 56.0708 59.7778 56.5624L61.9248 60.1406ZM36.6406 59.0469H39.037L39.5839 60.1406H36.6406V59.0469ZM40.8702 64.5156L43.8041 66.1918L43.0374 66.7031H36.6406V64.5156H40.8702ZM43.2031 73.8125C43.2031 74.1138 42.9576 74.3594 42.6562 74.3594H38.2812C37.9799 74.3594 37.7344 74.1138 37.7344 73.8125V71.7973C38.2326 72.0352 38.7871 72.1719 39.375 72.1719H43.2031V73.8125ZM46.1639 71.0781L47.2577 69.9844H57.7423L58.8361 71.0781H46.1639ZM66.7188 74.3594H62.3438C62.0424 74.3594 61.7969 74.1138 61.7969 73.8125V72.1719H65.625C66.2129 72.1719 66.7674 72.0352 67.2656 71.7973V73.8125C67.2656 74.1138 67.0201 74.3594 66.7188 74.3594ZM68.3594 66.7031H61.9626L61.1959 66.1918L64.1298 64.5156H68.3594V66.7031ZM67.428 63.4219H63.9844C63.8892 63.4219 63.7957 63.4465 63.7131 63.4941L59.885 65.6816C59.7204 65.7756 59.6165 65.9479 59.6099 66.1377C59.6034 66.3269 59.6952 66.5063 59.8533 66.6113L61.4939 67.705C61.583 67.7646 61.6891 67.7969 61.7969 67.7969H68.3594V68.3438C68.3594 69.8515 67.1327 71.0781 65.625 71.0781H60.3827L58.3554 69.0509C58.2531 68.948 58.1137 68.8906 57.9688 68.8906H47.0312C46.8863 68.8906 46.7469 68.948 46.6446 69.0509L44.6173 71.0781H39.375C37.8673 71.0781 36.6406 69.8515 36.6406 68.3438V67.7969H43.2031C43.3109 67.7969 43.417 67.7646 43.5066 67.705L45.1473 66.6113C45.3053 66.5063 45.3972 66.3269 45.3906 66.1377C45.3841 65.9479 45.2796 65.7756 45.1155 65.6816L41.2874 63.4941C41.2043 63.4465 41.1108 63.4219 41.0156 63.4219H37.572L40.1242 61.2344H40.4688H64.5312H64.8758L67.428 63.4219ZM68.3594 60.1406H65.4161L65.963 59.0469H68.3594V60.1406Z" fill="#D0A7D3"></path> <path d="M52.5 50.2969C54.0077 50.2969 55.2344 49.0702 55.2344 47.5625C55.2344 46.711 54.903 45.9104 54.3009 45.3088C53.492 44.5 53.0469 43.4248 53.0469 42.2813V42.0938C53.0469 41.7919 52.8019 41.5469 52.5 41.5469C52.1981 41.5469 51.9531 41.7919 51.9531 42.0938V42.2813C51.9531 43.4248 51.508 44.5 50.6991 45.3088C50.097 45.9104 49.7656 46.711 49.7656 47.5625C49.7656 49.0702 50.9923 50.2969 52.5 50.2969ZM51.4724 46.0821C51.8973 45.6572 52.2424 45.1737 52.5 44.6498C52.7576 45.1737 53.1027 45.6572 53.5276 46.0821C53.923 46.4775 54.1406 47.0036 54.1406 47.5625C54.1406 48.467 53.4045 49.2031 52.5 49.2031C51.5955 49.2031 50.8594 48.467 50.8594 47.5625C50.8594 47.0036 51.077 46.4775 51.4724 46.0821Z" fill="#D0A7D3"></path> <path d="M43.75 51.3906C45.2577 51.3906 46.4844 50.164 46.4844 48.6562C46.4844 47.8048 46.153 47.0041 45.5509 46.4026C44.742 45.5937 44.2969 44.5186 44.2969 43.3751V43.1875C44.2969 42.8856 44.0519 42.6406 43.75 42.6406C43.4481 42.6406 43.2031 42.8856 43.2031 43.1875V43.3751C43.2031 44.5186 42.758 45.5937 41.9491 46.4026C41.347 47.0041 41.0156 47.8048 41.0156 48.6562C41.0156 50.164 42.2423 51.3906 43.75 51.3906ZM42.7224 47.1759C43.1473 46.7509 43.4924 46.2675 43.75 45.7436C44.0076 46.2675 44.3527 46.7509 44.7776 47.1759C45.173 47.5713 45.3906 48.0973 45.3906 48.6562C45.3906 49.5608 44.6545 50.2969 43.75 50.2969C42.8455 50.2969 42.1094 49.5608 42.1094 48.6562C42.1094 48.0973 42.327 47.5713 42.7224 47.1759Z" fill="#D0A7D3"></path> <path d="M61.25 51.3906C62.7577 51.3906 63.9844 50.164 63.9844 48.6562C63.9844 47.8048 63.653 47.0041 63.0509 46.4026C62.242 45.5937 61.7969 44.5186 61.7969 43.3751V43.1875C61.7969 42.8856 61.5519 42.6406 61.25 42.6406C60.9481 42.6406 60.7031 42.8856 60.7031 43.1875V43.3751C60.7031 44.5186 60.258 45.5937 59.4491 46.4026C58.847 47.0041 58.5156 47.8048 58.5156 48.6562C58.5156 50.164 59.7423 51.3906 61.25 51.3906ZM60.2224 47.1759C60.6473 46.7509 60.9924 46.2675 61.25 45.7436C61.5076 46.2675 61.8527 46.7509 62.2776 47.1759C62.673 47.5713 62.8906 48.0973 62.8906 48.6562C62.8906 49.5608 62.1545 50.2969 61.25 50.2969C60.3455 50.2969 59.6094 49.5608 59.6094 48.6562C59.6094 48.0973 59.827 47.5713 60.2224 47.1759Z" fill="#D0A7D3"></path> <circle cx="80" cy="180" r="46" fill="#FECD4E"></circle> <path d="M95.8863 182.938H93.5954L93.6438 182.381C93.6511 182.297 93.6408 182.212 93.6136 182.132C93.5865 182.052 93.5429 181.979 93.4859 181.916C93.4288 181.854 93.3594 181.804 93.282 181.77C93.2047 181.736 93.1212 181.719 93.0367 181.719H81.3562L81.7157 178.123C81.7242 178.039 81.7149 177.953 81.6883 177.872C81.6617 177.791 81.6184 177.717 81.5613 177.654C81.5042 177.591 81.4344 177.54 81.3566 177.506C81.2788 177.471 81.1945 177.453 81.1094 177.453H80.8768L81.0643 175.016H81.1094C81.271 175.016 81.426 174.951 81.5403 174.837C81.6546 174.723 81.7188 174.568 81.7188 174.406V171.969C81.7188 171.807 81.6546 171.652 81.5403 171.538C81.426 171.424 81.271 171.359 81.1094 171.359H80.9758L80.4818 169.383C80.4488 169.252 80.3728 169.135 80.2656 169.051C80.1585 168.967 80.0265 168.922 79.8906 168.922H77.0322L78.6504 162.988C78.675 162.898 78.6784 162.803 78.6604 162.711C78.6424 162.619 78.6035 162.533 78.5466 162.458C78.4897 162.384 78.4165 162.323 78.3325 162.282C78.2486 162.24 78.1562 162.219 78.0625 162.219H75.625C75.4913 162.219 75.3613 162.263 75.255 162.344C75.1488 162.425 75.0722 162.539 75.0371 162.668L73.3315 168.922H64.0469C63.911 168.922 63.779 168.967 63.6719 169.051C63.5648 169.135 63.4887 169.252 63.4557 169.383L62.9617 171.359H62.8281C62.6665 171.359 62.5115 171.424 62.3972 171.538C62.283 171.652 62.2188 171.807 62.2188 171.969V174.406C62.2188 174.568 62.283 174.723 62.3972 174.837C62.5115 174.951 62.6665 175.016 62.8281 175.016H62.8732L63.0607 177.453H62.8281C62.743 177.453 62.6587 177.471 62.5809 177.506C62.5031 177.54 62.4333 177.591 62.3762 177.654C62.3191 177.717 62.2758 177.791 62.2492 177.872C62.2226 177.953 62.2133 178.039 62.2218 178.123L63.4406 190.311C63.4557 190.461 63.5261 190.601 63.6381 190.702C63.7501 190.803 63.8958 190.859 64.0469 190.859H64.092L64.658 198.219C64.6698 198.372 64.7389 198.515 64.8516 198.619C64.9642 198.723 65.1121 198.781 65.2656 198.781H92.8399C93.7688 198.78 94.6594 198.411 95.3163 197.754C95.9732 197.097 96.3427 196.206 96.3438 195.277V194.516C96.3438 194.354 96.2796 194.199 96.1653 194.085C96.051 193.97 95.896 193.906 95.7344 193.906H91.7894C92.0458 193.523 92.263 193.114 92.4377 192.688H95.3205C96.0164 192.685 96.6882 192.432 97.214 191.976C97.7397 191.52 98.0846 190.891 98.1859 190.202L98.7517 186.241C98.8104 185.831 98.7801 185.412 98.663 185.015C98.5459 184.617 98.3447 184.249 98.073 183.936C97.8012 183.622 97.4654 183.371 97.0881 183.199C96.7108 183.027 96.301 182.938 95.8863 182.938V182.938ZM93.2775 186.594H94.7552L94.349 189.031H93.0655L93.2775 186.594ZM63.4375 172.578H80.5V173.797H63.4375V172.578ZM76.0904 163.438H77.2647L75.769 168.922H74.5947L76.0904 163.438ZM64.5227 170.141H79.4149L79.7196 171.359H64.218L64.5227 170.141ZM64.0956 175.016H79.842L79.6545 177.453H64.283L64.0956 175.016ZM63.5014 178.672H80.436L80.1313 181.719H74.8602C74.353 180.993 73.6326 180.444 72.7989 180.147C71.9652 179.85 71.0596 179.82 70.208 180.061C69.3564 180.302 68.6009 180.802 68.0466 181.492C67.4922 182.182 67.1664 183.027 67.1145 183.911C67.0625 184.794 67.287 185.672 67.7567 186.422C68.2264 187.172 68.918 187.757 69.7355 188.097C70.553 188.436 71.4558 188.512 72.3186 188.315C73.1814 188.117 73.9613 187.656 74.55 186.995L74.7795 189.641H64.5984L63.5014 178.672ZM74.2088 183.076L74.3523 184.726C74.2143 185.449 73.8198 186.097 73.2413 186.551C72.6629 187.005 71.9397 187.235 71.2053 187.197C70.4709 187.16 69.7748 186.858 69.2456 186.347C68.7164 185.836 68.3898 185.152 68.3261 184.419C68.2624 183.686 68.466 182.955 68.8991 182.361C69.3323 181.767 69.9658 181.349 70.6828 181.186C71.3997 181.022 72.1516 181.123 72.7997 181.471C73.4478 181.818 73.9483 182.389 74.2088 183.076V183.076ZM65.3143 190.859H74.8891C75.0118 191.949 75.3931 192.994 76.0012 193.906H72.5781C72.4165 193.906 72.2615 193.97 72.1472 194.085C72.033 194.199 71.9688 194.354 71.9688 194.516V195.125H70.75C70.5884 195.125 70.4334 195.189 70.3191 195.303C70.2048 195.418 70.1406 195.573 70.1406 195.734C70.1406 195.896 70.2048 196.051 70.3191 196.165C70.4334 196.28 70.5884 196.344 70.75 196.344H72.1353C72.2792 196.792 72.5121 197.206 72.8198 197.562H65.8299L65.3143 190.859ZM95.125 195.277C95.1243 195.883 94.8833 196.464 94.4549 196.892C94.0265 197.321 93.4457 197.562 92.8399 197.562H75.4727C74.8668 197.562 74.286 197.321 73.8576 196.892C73.4292 196.464 73.1882 195.883 73.1875 195.277V195.125H95.125V195.277ZM77.547 193.906C76.7083 192.99 76.1946 191.823 76.0852 190.586L75.4201 182.938H92.3721L91.7069 190.586C91.5987 191.823 91.0854 192.99 90.2467 193.906H77.547ZM97.5452 186.069L96.9794 190.03C96.9208 190.428 96.7211 190.793 96.4167 191.057C96.1123 191.321 95.7234 191.467 95.3205 191.469H92.8068C92.8598 191.212 92.8979 190.953 92.9211 190.692L92.9591 190.25H94.607C94.8236 190.251 95.0332 190.174 95.1984 190.034C95.3637 189.894 95.4736 189.7 95.5087 189.486L96.0165 186.439C96.0384 186.308 96.0314 186.174 95.9961 186.046C95.9608 185.918 95.8981 185.799 95.8122 185.698C95.7264 185.597 95.6195 185.515 95.499 185.46C95.3785 185.404 95.2474 185.375 95.1146 185.375H93.3834L93.4894 184.156H95.8863C96.1264 184.156 96.3636 184.208 96.582 184.308C96.8005 184.407 96.9949 184.553 97.1522 184.734C97.3095 184.915 97.426 185.128 97.4938 185.359C97.5616 185.589 97.5792 185.831 97.5452 186.069V186.069Z" fill="#FFF0C9"></path> <path d="M83.2422 179.891C83.2422 180.052 83.3064 180.207 83.4207 180.322C83.5349 180.436 83.6899 180.5 83.8516 180.5C84.0132 180.5 84.1682 180.436 84.2825 180.322C84.3967 180.207 84.4609 180.052 84.4609 179.891C84.4609 179.765 84.486 179.731 84.6189 179.576C84.7987 179.367 85.0703 179.05 85.0703 178.469C85.0703 177.888 84.7987 177.571 84.6189 177.361C84.486 177.206 84.4609 177.173 84.4609 177.047C84.4606 177.019 84.463 176.991 84.4681 176.963C84.4845 176.884 84.4852 176.803 84.47 176.724C84.4549 176.645 84.4242 176.57 84.3799 176.502C84.3355 176.435 84.2782 176.378 84.2114 176.333C84.1446 176.288 84.0696 176.257 83.9906 176.241C83.9117 176.225 83.8304 176.225 83.7515 176.241C83.6726 176.257 83.5976 176.288 83.5309 176.333C83.4642 176.378 83.407 176.436 83.3627 176.503C83.3184 176.57 83.2879 176.646 83.2729 176.725C83.2522 176.831 83.242 176.939 83.2424 177.047C83.2424 177.628 83.514 177.945 83.6938 178.154C83.8267 178.31 83.8518 178.343 83.8518 178.469C83.8518 178.595 83.8267 178.628 83.6938 178.783C83.5138 178.993 83.2422 179.31 83.2422 179.891Z" fill="#FFF0C9"></path> <path d="M86.2891 179.891C86.2891 180.052 86.3533 180.207 86.4675 180.322C86.5818 180.436 86.7368 180.5 86.8984 180.5C87.0601 180.5 87.2151 180.436 87.3293 180.322C87.4436 180.207 87.5078 180.052 87.5078 179.891C87.5078 179.765 87.5329 179.731 87.6658 179.576C87.8456 179.367 88.1172 179.05 88.1172 178.469C88.1172 177.888 87.8456 177.571 87.6658 177.361C87.5329 177.206 87.5078 177.173 87.5078 177.047C87.5075 177.019 87.5099 176.991 87.515 176.963C87.5314 176.884 87.5321 176.803 87.5169 176.724C87.5018 176.645 87.4711 176.57 87.4267 176.502C87.3823 176.435 87.3251 176.378 87.2583 176.333C87.1915 176.288 87.1164 176.257 87.0375 176.241C86.9586 176.225 86.8773 176.225 86.7984 176.241C86.7195 176.257 86.6445 176.288 86.5778 176.333C86.511 176.378 86.4539 176.436 86.4096 176.503C86.3653 176.57 86.3348 176.646 86.3198 176.725C86.2991 176.831 86.2889 176.939 86.2893 177.047C86.2893 177.628 86.5609 177.945 86.7407 178.154C86.8736 178.31 86.8987 178.343 86.8987 178.469C86.8987 178.595 86.8736 178.628 86.7407 178.783C86.5607 178.993 86.2891 179.31 86.2891 179.891Z" fill="#FFF0C9"></path> <path d="M89.9608 188.466C89.7997 188.453 89.6402 188.505 89.5174 188.61C89.3946 188.715 89.3185 188.865 89.3057 189.026L89.2614 189.593C89.2551 189.673 89.2647 189.753 89.2894 189.829C89.3142 189.905 89.3537 189.976 89.4057 190.037C89.4577 190.098 89.5212 190.148 89.5925 190.184C89.6638 190.22 89.7416 190.242 89.8214 190.248C89.8376 190.25 89.8536 190.25 89.8696 190.25C90.0229 190.25 90.1705 190.192 90.283 190.088C90.3954 189.984 90.4645 189.841 90.4765 189.688L90.5208 189.121C90.5271 189.041 90.5175 188.961 90.4928 188.885C90.468 188.809 90.4285 188.738 90.3765 188.677C90.3245 188.617 90.261 188.567 90.1897 188.53C90.1183 188.494 90.0406 188.472 89.9608 188.466Z" fill="#FFF0C9"></path> <path d="M90.2976 184.158C90.1365 184.146 89.9771 184.198 89.8543 184.303C89.7315 184.408 89.6554 184.557 89.6425 184.718L89.4591 187.065C89.4529 187.145 89.4624 187.226 89.4872 187.302C89.512 187.378 89.5515 187.448 89.6035 187.509C89.6555 187.57 89.719 187.62 89.7903 187.656C89.8616 187.692 89.9394 187.714 90.0192 187.721C90.0354 187.722 90.0514 187.722 90.0674 187.722C90.2206 187.722 90.3682 187.664 90.4807 187.56C90.5931 187.456 90.6622 187.313 90.6742 187.16L90.8576 184.813C90.8638 184.733 90.8543 184.653 90.8295 184.577C90.8048 184.501 90.7652 184.431 90.7132 184.37C90.6612 184.309 90.5978 184.259 90.5264 184.223C90.4551 184.186 90.3773 184.164 90.2976 184.158Z" fill="#FFF0C9"></path> <path d="M68.3125 195.125H67.7031C67.5415 195.125 67.3865 195.189 67.2722 195.303C67.158 195.418 67.0938 195.573 67.0938 195.734C67.0938 195.896 67.158 196.051 67.2722 196.165C67.3865 196.28 67.5415 196.344 67.7031 196.344H68.3125C68.4741 196.344 68.6291 196.28 68.7434 196.165C68.8577 196.051 68.9219 195.896 68.9219 195.734C68.9219 195.573 68.8577 195.418 68.7434 195.303C68.6291 195.189 68.4741 195.125 68.3125 195.125Z" fill="#FFF0C9"></path> <circle cx="404.376" cy="74.3765" r="63.3765" fill="#FECD4E"></circle> <path d="M427.581 67.6254H419.896C419.892 67.6254 419.888 67.6254 419.884 67.6254H386.492C386.293 67.6254 386.102 67.7046 385.961 67.8455C385.82 67.9864 385.741 68.1776 385.741 68.3769V82.4253C385.739 84.4615 386.28 86.4613 387.309 88.2186C388.337 89.9759 389.816 91.4271 391.592 92.4226H380.752C380.653 92.4226 380.555 92.4421 380.464 92.4799C380.372 92.5178 380.289 92.5733 380.22 92.6432C380.15 92.7131 380.095 92.7961 380.057 92.8874C380.019 92.9788 380 93.0766 380 93.1754C380.002 94.7558 380.631 96.2708 381.748 97.3883C382.866 98.5058 384.381 99.1346 385.961 99.1367H420.412C421.992 99.1349 423.508 98.5063 424.626 97.3888C425.743 96.2712 426.372 94.756 426.374 93.1754C426.374 93.0767 426.355 92.979 426.317 92.8878C426.28 92.7966 426.224 92.7137 426.154 92.6439C426.085 92.5741 426.002 92.5187 425.911 92.481C425.819 92.4432 425.722 92.4238 425.623 92.4239H414.782C416.416 91.5079 417.799 90.2051 418.812 88.6297C419.824 87.0543 420.434 85.2544 420.589 83.3881L428.547 82.3394C430.412 82.1018 432.117 81.1613 433.314 79.7097C434.51 78.2582 435.107 76.405 434.984 74.5281C434.861 72.6512 434.026 70.892 432.651 69.6093C431.275 68.3266 429.462 67.6171 427.581 67.6254V67.6254ZM420.634 72.5641H427.581C428.207 72.5569 428.812 72.79 429.272 73.2156C429.732 73.6411 430.011 74.2266 430.052 74.8517C430.093 75.4767 429.892 76.0936 429.492 76.5756C429.092 77.0575 428.523 77.3677 427.901 77.4423L420.634 78.4022V72.5641ZM420.412 97.6323H385.961C384.91 97.6309 383.892 97.2583 383.088 96.5802C382.284 95.9022 381.745 94.9621 381.566 93.9257H424.808C424.629 94.9623 424.09 95.9026 423.286 96.5807C422.482 97.2587 421.464 97.6312 420.412 97.6323V97.6323ZM413.832 91.236L411.596 92.4226H394.778L392.543 91.236C390.941 90.3888 389.601 89.1205 388.667 87.5678C387.734 86.0152 387.241 84.2371 387.244 82.4253V69.1259H419.131V82.4253C419.131 82.4837 419.126 82.5413 419.125 82.5992L419.121 82.7023C419.121 82.7023 419.121 82.7057 419.121 82.7074C419.074 84.4702 418.56 86.1889 417.63 87.6875C416.701 89.1861 415.39 90.4108 413.832 91.236V91.236ZM428.35 80.8501L420.634 81.8661V79.9168L428.099 78.933C429.1 78.809 430.015 78.3072 430.658 77.5302C431.301 76.7533 431.622 75.76 431.556 74.7538C431.49 73.7476 431.042 72.8047 430.304 72.1182C429.565 71.4316 428.592 71.0534 427.584 71.061H420.634V69.1285H427.581C429.081 69.1182 430.529 69.6817 431.628 70.7038C432.727 71.7258 433.394 73.129 433.492 74.6264C433.59 76.1238 433.113 77.6022 432.157 78.7591C431.201 79.916 429.839 80.664 428.35 80.8501V80.8501Z" fill="#FFF0C9"></path> <path d="M405.107 75.5633C404.639 75.095 404.083 74.7236 403.471 74.4702C402.859 74.2168 402.203 74.0865 401.541 74.0865C400.203 74.0867 398.92 74.6182 397.975 75.5641C397.506 76.0325 397.135 76.5885 396.881 77.2005C396.628 77.8124 396.498 78.4682 396.498 79.1305C396.498 80.4681 397.029 81.7509 397.975 82.6966L401.267 85.9879C402.213 86.9336 403.496 87.4648 404.833 87.4647C406.171 87.4645 407.453 86.933 408.399 85.9871C409.345 85.0411 409.876 83.7583 409.876 82.4207C409.876 81.0831 409.344 79.8003 408.398 78.8546L405.107 75.5633ZM404.044 76.6262L407.335 79.9175C407.907 80.489 408.265 81.2389 408.351 82.0424C408.437 82.846 408.245 83.6547 407.808 84.3341L399.626 76.1525C400.305 75.7149 401.114 75.523 401.917 75.609C402.721 75.6949 403.471 76.0535 404.042 76.6249L404.044 76.6262ZM402.331 84.9233L399.04 81.6319C398.468 81.0606 398.11 80.3107 398.024 79.5071C397.938 78.7035 398.13 77.8947 398.568 77.2154L406.746 85.397C406.067 85.834 405.258 86.0254 404.455 85.9392C403.652 85.853 402.903 85.4945 402.331 84.9233V84.9233Z" fill="#FFF0C9"></path> <path d="M395.309 64.5629C395.309 64.7622 395.388 64.9534 395.529 65.0943C395.67 65.2353 395.861 65.3144 396.061 65.3144C396.26 65.3144 396.451 65.2353 396.592 65.0943C396.733 64.9534 396.812 64.7622 396.812 64.5629C396.813 64.2835 396.873 64.0075 396.989 63.7535C397.105 63.4994 397.275 63.2731 397.486 63.0898C397.816 62.7704 398.078 62.3878 398.258 61.9647C398.437 61.5417 398.53 61.0869 398.53 60.6273C398.53 60.1678 398.437 59.713 398.258 59.29C398.078 58.8669 397.816 58.4843 397.486 58.1648C397.274 57.9816 397.104 57.7551 396.988 57.5005C396.872 57.246 396.812 56.9695 396.812 56.6897C396.812 56.4099 396.872 56.1333 396.988 55.8788C397.104 55.6243 397.274 55.3977 397.486 55.2145C397.816 54.8954 398.079 54.5127 398.259 54.0895C398.438 53.6663 398.53 53.2112 398.53 52.7515C398.53 52.5522 398.45 52.3611 398.309 52.2201C398.168 52.0792 397.977 52 397.778 52C397.579 52 397.387 52.0792 397.247 52.2201C397.106 52.3611 397.026 52.5522 397.026 52.7515C397.024 53.031 396.963 53.3068 396.847 53.561C396.731 53.8153 396.563 54.0421 396.353 54.2267C396.023 54.5462 395.76 54.9289 395.58 55.352C395.401 55.7752 395.309 56.2301 395.309 56.6897C395.309 57.1493 395.401 57.6042 395.58 58.0273C395.76 58.4504 396.023 58.8331 396.353 59.1526C396.563 59.3372 396.731 59.5641 396.847 59.8183C396.963 60.0725 397.024 60.3483 397.026 60.6278C397.026 60.9073 396.965 61.1834 396.849 61.4376C396.733 61.6918 396.564 61.9182 396.353 62.1017C396.022 62.4204 395.759 62.8028 395.58 63.2257C395.4 63.6486 395.308 64.1035 395.309 64.5629V64.5629Z" fill="#FFF0C9"></path> <path d="M401.577 64.5629C401.577 64.7622 401.656 64.9534 401.797 65.0943C401.938 65.2353 402.129 65.3144 402.328 65.3144C402.528 65.3144 402.719 65.2353 402.86 65.0943C403.001 64.9534 403.08 64.7622 403.08 64.5629C403.081 64.2835 403.141 64.0075 403.257 63.7535C403.373 63.4994 403.543 63.2731 403.753 63.0898C404.084 62.7704 404.346 62.3878 404.526 61.9647C404.705 61.5417 404.798 61.0869 404.798 60.6273C404.798 60.1678 404.705 59.713 404.526 59.29C404.346 58.8669 404.084 58.4843 403.753 58.1648C403.542 57.9816 403.372 57.7551 403.256 57.5005C403.14 57.246 403.08 56.9695 403.08 56.6897C403.08 56.4099 403.14 56.1333 403.256 55.8788C403.372 55.6243 403.542 55.3977 403.753 55.2145C404.084 54.8954 404.347 54.5127 404.527 54.0895C404.706 53.6663 404.798 53.2112 404.797 52.7515C404.797 52.5522 404.718 52.3611 404.577 52.2201C404.436 52.0792 404.245 52 404.046 52C403.847 52 403.655 52.0792 403.514 52.2201C403.373 52.3611 403.294 52.5522 403.294 52.7515C403.292 53.031 403.231 53.3069 403.115 53.5611C402.999 53.8154 402.83 54.0422 402.62 54.2267C402.29 54.5463 402.028 54.929 401.848 55.3521C401.669 55.7752 401.576 56.2301 401.576 56.6897C401.576 57.1492 401.669 57.6041 401.848 58.0272C402.028 58.4503 402.29 58.833 402.62 59.1526C402.83 59.3371 402.999 59.564 403.115 59.8182C403.231 60.0724 403.292 60.3483 403.294 60.6278C403.294 60.9073 403.233 61.1834 403.117 61.4376C403.001 61.6918 402.832 61.9182 402.621 62.1017C402.29 62.4204 402.027 62.8027 401.847 63.2256C401.668 63.6486 401.576 64.1035 401.577 64.5629V64.5629Z" fill="#FFF0C9"></path> <path d="M407.844 64.5629C407.844 64.7622 407.924 64.9534 408.065 65.0943C408.206 65.2353 408.397 65.3144 408.596 65.3144C408.795 65.3144 408.987 65.2353 409.127 65.0943C409.268 64.9534 409.348 64.7622 409.348 64.5629C409.348 64.2835 409.409 64.0075 409.525 63.7535C409.641 63.4994 409.81 63.2731 410.021 63.0898C410.351 62.7704 410.614 62.3878 410.793 61.9648C410.973 61.5417 411.065 61.0869 411.065 60.6273C411.065 60.1678 410.973 59.713 410.793 59.2899C410.614 58.8669 410.351 58.4843 410.021 58.1648C409.81 57.9815 409.64 57.755 409.524 57.5004C409.408 57.2459 409.348 56.9694 409.348 56.6897C409.348 56.4099 409.408 56.1334 409.524 55.8789C409.64 55.6244 409.81 55.3978 410.021 55.2145C410.352 54.8955 410.615 54.5128 410.795 54.0896C410.974 53.6664 411.066 53.2113 411.065 52.7515C411.065 52.5522 410.986 52.3611 410.845 52.2201C410.704 52.0792 410.513 52 410.314 52C410.115 52 409.923 52.0792 409.782 52.2201C409.641 52.3611 409.562 52.5522 409.562 52.7515C409.56 53.031 409.499 53.3068 409.383 53.561C409.267 53.8153 409.099 54.0421 408.889 54.2267C408.559 54.5462 408.296 54.9289 408.116 55.352C407.937 55.7752 407.844 56.2301 407.844 56.6897C407.844 57.1493 407.937 57.6042 408.116 58.0273C408.296 58.4504 408.559 58.8331 408.889 59.1526C409.099 59.3372 409.267 59.5641 409.383 59.8183C409.499 60.0725 409.56 60.3483 409.562 60.6278C409.562 60.9073 409.501 61.1834 409.385 61.4376C409.269 61.6918 409.1 61.9182 408.889 62.1017C408.558 62.4203 408.295 62.8026 408.115 63.2256C407.936 63.6485 407.844 64.1034 407.844 64.5629Z" fill="#FFF0C9"></path> <circle cx="227" cy="197" r="36" fill="#393635"></circle> <circle cx="494.67" cy="182.67" r="46.6701" fill="#E32422"></circle> <path d="M513.952 199.684L512.494 196.323C512.795 196.068 513.011 195.728 513.113 195.347C513.214 194.966 513.196 194.563 513.061 194.192L509.39 184.052C509.284 183.759 509.281 183.438 509.383 183.144L509.962 181.466C510.147 180.924 510.14 180.334 509.942 179.796C509.743 179.258 509.365 178.805 508.871 178.513L497.245 171.683C496.839 171.445 496.374 171.327 495.903 171.343C495.433 171.36 494.977 171.509 494.588 171.775L490.116 167.1C489.638 166.603 489.022 166.26 488.348 166.116L478.568 164.013C478.496 163.997 478.421 163.996 478.349 164.009C478.276 164.022 478.207 164.05 478.145 164.09C478.083 164.13 478.03 164.182 477.988 164.242C477.946 164.303 477.917 164.372 477.901 164.444L477.295 167.265C477.264 167.411 477.292 167.563 477.373 167.688C477.454 167.813 477.581 167.901 477.726 167.932L487.215 169.971C487.294 169.988 487.367 170.028 487.424 170.086L491.721 174.575L491.651 174.645C491.321 174.976 491.091 175.393 490.987 175.849C490.883 176.304 490.908 176.78 491.061 177.221L498.238 197.814C498.33 198.078 498.477 198.318 498.671 198.52C498.864 198.721 499.099 198.879 499.359 198.981C499.619 199.083 499.898 199.128 500.176 199.113C500.455 199.098 500.728 199.022 500.975 198.892L505.533 196.49L505.886 197.3C506.059 197.699 506.361 198.028 506.743 198.235C507.126 198.441 507.566 198.513 507.994 198.439L509.392 201.66C509.436 201.76 509.508 201.846 509.599 201.906C509.691 201.966 509.798 201.998 509.907 201.998C509.984 201.998 510.061 201.982 510.132 201.951L513.662 200.422C513.729 200.393 513.791 200.351 513.842 200.298C513.893 200.245 513.934 200.183 513.961 200.114C513.988 200.046 514.001 199.972 514 199.899C513.999 199.825 513.983 199.752 513.954 199.685L513.952 199.684ZM488.235 169.311C488.024 169.09 487.751 168.938 487.452 168.874L478.51 166.952L478.881 165.228L488.111 167.213C488.567 167.31 488.983 167.542 489.306 167.877L493.763 172.534L492.515 173.781L488.235 169.311ZM507.378 197.293C507.276 197.255 507.182 197.196 507.102 197.121C507.023 197.045 506.96 196.954 506.916 196.854L506.324 195.489C506.293 195.418 506.248 195.354 506.192 195.301C506.135 195.249 506.069 195.208 505.996 195.183C505.923 195.157 505.846 195.147 505.769 195.152C505.692 195.158 505.616 195.18 505.548 195.216L500.454 197.9C500.349 197.955 500.234 197.986 500.117 197.993C499.999 197.999 499.882 197.98 499.772 197.937C499.662 197.894 499.563 197.827 499.482 197.742C499.4 197.657 499.338 197.556 499.299 197.445L492.12 176.851C492.037 176.609 492.023 176.349 492.08 176.099C492.137 175.85 492.263 175.621 492.444 175.44L495.023 172.862C495.237 172.649 495.515 172.512 495.814 172.474C496.113 172.436 496.417 172.498 496.677 172.651L508.303 179.481C508.574 179.641 508.781 179.889 508.89 180.184C508.999 180.479 509.003 180.803 508.901 181.101L508.322 182.778C508.137 183.316 508.141 183.9 508.334 184.435L512.006 194.575C512.076 194.767 512.072 194.979 511.994 195.167C511.916 195.356 511.77 195.509 511.584 195.595C511.579 195.597 511.574 195.598 511.57 195.6C511.565 195.602 511.553 195.609 511.545 195.613L508.092 197.232C508.089 197.232 508.087 197.234 508.084 197.235C508.081 197.237 508.075 197.24 508.07 197.243L508.014 197.269C507.915 197.316 507.808 197.342 507.698 197.347C507.588 197.351 507.479 197.333 507.377 197.293H507.378ZM510.2 200.699L509.041 198.028L511.51 196.87L512.701 199.616L510.2 200.699Z" fill="#FFBBBA"></path> <path d="M498.266 175.817L499.966 176.815C500.094 176.89 500.247 176.912 500.391 176.874C500.535 176.837 500.659 176.744 500.734 176.615C500.809 176.487 500.831 176.334 500.793 176.19C500.756 176.046 500.663 175.922 500.535 175.847L498.835 174.849C498.707 174.773 498.554 174.752 498.41 174.789C498.265 174.827 498.142 174.92 498.067 175.048C497.991 175.177 497.97 175.33 498.007 175.474C498.045 175.618 498.138 175.741 498.266 175.817Z" fill="#FFBBBA"></path> <path d="M502.227 184.722C502.014 184.119 501.586 183.615 501.026 183.308L499.794 182.631C499.332 182.377 498.804 182.269 498.28 182.322C497.756 182.374 497.259 182.584 496.857 182.924C496.455 183.265 496.165 183.719 496.026 184.227C495.887 184.735 495.905 185.274 496.079 185.772L499.847 196.583C499.873 196.66 499.916 196.729 499.972 196.788C500.028 196.846 500.096 196.891 500.171 196.921C500.246 196.95 500.326 196.963 500.407 196.959C500.488 196.955 500.566 196.933 500.638 196.895L505.179 194.507C505.298 194.444 505.391 194.34 505.44 194.215C505.489 194.089 505.491 193.95 505.446 193.823L502.227 184.722ZM500.692 195.599L497.139 185.401C497.061 185.178 497.038 184.939 497.071 184.704C497.104 184.47 497.193 184.247 497.33 184.054C497.467 183.861 497.649 183.704 497.859 183.595C498.069 183.487 498.302 183.43 498.539 183.43H498.547L501.233 190.446L500.797 191.845C500.775 191.915 500.767 191.989 500.774 192.062C500.78 192.136 500.801 192.207 500.835 192.273C500.87 192.338 500.916 192.396 500.973 192.443C501.03 192.49 501.095 192.526 501.165 192.547C501.219 192.565 501.276 192.573 501.333 192.573C501.452 192.573 501.569 192.535 501.665 192.464C501.761 192.393 501.832 192.293 501.868 192.179L502.363 190.595C502.4 190.475 502.396 190.345 502.351 190.227L499.969 184.007L500.486 184.291C500.805 184.466 501.048 184.753 501.17 185.096L504.227 193.739L500.692 195.599Z" fill="#FFBBBA"></path> <path d="M480.007 174.61C479.843 174.778 476 178.767 476 181.909C476 182.488 476.114 183.062 476.336 183.597C476.557 184.132 476.882 184.618 477.291 185.027C477.701 185.437 478.187 185.761 478.722 185.983C479.257 186.205 479.83 186.319 480.409 186.319C480.988 186.319 481.562 186.205 482.097 185.983C482.632 185.761 483.118 185.437 483.527 185.027C483.937 184.618 484.261 184.132 484.483 183.597C484.705 183.062 484.819 182.488 484.819 181.909C484.819 178.767 480.975 174.779 480.812 174.611C480.704 174.506 480.56 174.447 480.41 174.447C480.259 174.446 480.115 174.505 480.007 174.61V174.61ZM480.409 185.195C479.538 185.194 478.703 184.848 478.087 184.232C477.47 183.616 477.124 182.781 477.122 181.909C477.122 179.763 479.453 176.912 480.41 175.833C481.366 176.91 483.696 179.759 483.696 181.909C483.695 182.781 483.348 183.616 482.732 184.232C482.116 184.848 481.281 185.194 480.409 185.195V185.195Z" fill="#FFBBBA"></path> </g> <path d="M339.189 164.334L337.611 160.075C337.473 159.706 337.226 159.387 336.902 159.161C336.578 158.936 336.194 158.814 335.799 158.812H324.481C324.087 158.814 323.702 158.935 323.378 159.161C323.054 159.387 322.807 159.706 322.669 160.075L321.112 164.276L320.489 164.861C320.201 165.108 319.97 165.415 319.812 165.76C319.654 166.106 319.573 166.481 319.574 166.861V174.484C319.573 174.554 319.586 174.622 319.611 174.687C319.637 174.751 319.675 174.81 319.724 174.859C319.772 174.908 319.83 174.948 319.894 174.975C319.957 175.001 320.026 175.015 320.095 175.016H324.066C324.21 175.016 324.348 174.962 324.451 174.862C324.555 174.763 324.616 174.628 324.621 174.484V172.293H335.379V174.484C335.384 174.628 335.445 174.763 335.548 174.862C335.652 174.962 335.79 175.016 335.933 175.016H339.904C339.974 175.015 340.042 175.001 340.106 174.975C340.17 174.948 340.228 174.908 340.276 174.859C340.325 174.81 340.363 174.751 340.388 174.687C340.414 174.622 340.427 174.554 340.426 174.484V166.701C340.426 166.345 340.355 165.994 340.216 165.667C340.077 165.34 339.874 165.044 339.618 164.798L339.189 164.334ZM323.665 160.45C323.727 160.282 323.838 160.138 323.984 160.035C324.13 159.933 324.303 159.877 324.481 159.875H335.799C335.977 159.877 336.151 159.933 336.296 160.035C336.442 160.138 336.553 160.283 336.615 160.45L337.95 164.059H322.33L323.665 160.45ZM320.637 166.861C320.635 166.633 320.684 166.408 320.779 166.201C320.874 165.994 321.013 165.811 321.186 165.663C321.192 165.658 321.196 165.657 321.202 165.652L321.776 165.121H338.461L338.858 165.54C338.865 165.548 338.868 165.553 338.876 165.561C339.03 165.707 339.153 165.884 339.237 166.08C339.321 166.276 339.364 166.487 339.363 166.701V171.23H320.637V166.861ZM323.558 173.953H320.637V172.293H323.558V173.953ZM336.441 173.953V172.293H339.363V173.953H336.441Z" fill="#D0A7D3"></path> <path d="M323.296 170.035H323.639C324.079 170.035 324.501 169.86 324.813 169.549C325.124 169.238 325.299 168.815 325.299 168.375C325.299 167.935 325.124 167.512 324.813 167.201C324.501 166.89 324.079 166.715 323.639 166.715H323.296C322.855 166.715 322.433 166.89 322.122 167.201C321.81 167.512 321.635 167.935 321.635 168.375C321.635 168.815 321.81 169.238 322.122 169.549C322.433 169.86 322.855 170.035 323.296 170.035V170.035ZM323.296 167.777H323.639C323.797 167.777 323.949 167.84 324.062 167.952C324.174 168.064 324.237 168.216 324.237 168.375C324.237 168.534 324.174 168.686 324.062 168.798C323.949 168.91 323.797 168.973 323.639 168.973H323.296C323.137 168.973 322.985 168.91 322.873 168.798C322.761 168.686 322.698 168.534 322.698 168.375C322.698 168.216 322.761 168.064 322.873 167.952C322.985 167.84 323.137 167.777 323.296 167.777V167.777Z" fill="#D0A7D3"></path> <path d="M336.361 170.035H336.704C337.145 170.035 337.567 169.86 337.878 169.549C338.19 169.238 338.364 168.815 338.364 168.375C338.364 167.935 338.19 167.512 337.878 167.201C337.567 166.89 337.145 166.715 336.704 166.715H336.361C335.921 166.715 335.499 166.89 335.187 167.201C334.876 167.512 334.701 167.935 334.701 168.375C334.701 168.815 334.876 169.238 335.187 169.549C335.499 169.86 335.921 170.035 336.361 170.035ZM336.361 167.777H336.704C336.863 167.777 337.015 167.84 337.127 167.952C337.239 168.064 337.302 168.216 337.302 168.375C337.302 168.534 337.239 168.686 337.127 168.798C337.015 168.91 336.863 168.973 336.704 168.973H336.361C336.203 168.973 336.051 168.91 335.938 168.798C335.826 168.686 335.763 168.534 335.763 168.375C335.763 168.216 335.826 168.064 335.938 167.952C336.051 167.84 336.203 167.777 336.361 167.777V167.777Z" fill="#D0A7D3"></path> <path d="M333.52 167.246C333.52 167.105 333.464 166.97 333.364 166.87C333.264 166.771 333.129 166.715 332.988 166.715H326.945C326.804 166.715 326.669 166.771 326.57 166.87C326.47 166.97 326.414 167.105 326.414 167.246V169.504C326.414 169.645 326.47 169.78 326.57 169.88C326.669 169.979 326.804 170.035 326.945 170.035H332.988C333.129 170.035 333.264 169.979 333.364 169.88C333.464 169.78 333.52 169.645 333.52 169.504V167.246ZM327.477 167.777H332.523V168.973H327.477V167.777Z" fill="#D0A7D3"></path> <path d="M343.48 150.445H336.508V150.312C336.508 149.287 335.707 148.453 334.682 148.453H325.318C324.293 148.453 323.426 149.287 323.426 150.312V150.445H316.52C316.379 150.445 316.244 150.501 316.144 150.601C316.044 150.701 315.988 150.836 315.988 150.977V175.016C315.988 175.157 316.044 175.292 316.144 175.391C316.244 175.491 316.379 175.547 316.52 175.547C316.66 175.547 316.796 175.491 316.895 175.391C316.995 175.292 317.051 175.157 317.051 175.016V151.508H323.426V152.57C323.426 152.864 323.697 153.102 323.99 153.102H336.01C336.303 153.102 336.508 152.864 336.508 152.57V151.508H342.949V175.016C342.949 175.157 343.005 175.292 343.105 175.391C343.204 175.491 343.34 175.547 343.48 175.547C343.621 175.547 343.756 175.491 343.856 175.391C343.956 175.292 344.012 175.157 344.012 175.016V150.977C344.012 150.836 343.956 150.701 343.856 150.601C343.756 150.501 343.621 150.445 343.48 150.445ZM335.445 152.039H324.488V150.312C324.488 149.873 324.879 149.516 325.318 149.516H334.682C335.121 149.516 335.445 149.873 335.445 150.312V152.039Z" fill="#D0A7D3"></path> <path d="M330.598 153.633C330.457 153.633 330.322 153.689 330.222 153.788C330.122 153.888 330.066 154.023 330.066 154.164V155.027C330.066 155.168 330.122 155.303 330.222 155.403C330.322 155.503 330.457 155.559 330.598 155.559C330.739 155.559 330.874 155.503 330.973 155.403C331.073 155.303 331.129 155.168 331.129 155.027V154.164C331.129 154.023 331.073 153.888 330.973 153.788C330.874 153.689 330.739 153.633 330.598 153.633Z" fill="#D0A7D3"></path> <path d="M331.926 153.633C331.785 153.633 331.65 153.689 331.55 153.788C331.451 153.888 331.395 154.023 331.395 154.164V155.027C331.395 155.168 331.451 155.303 331.55 155.403C331.65 155.503 331.785 155.559 331.926 155.559C332.067 155.559 332.202 155.503 332.301 155.403C332.401 155.303 332.457 155.168 332.457 155.027V154.164C332.457 154.023 332.401 153.888 332.301 153.788C332.202 153.689 332.067 153.633 331.926 153.633Z" fill="#D0A7D3"></path> <path d="M333.254 153.633C333.113 153.633 332.978 153.689 332.878 153.788C332.779 153.888 332.723 154.023 332.723 154.164V155.027C332.723 155.168 332.779 155.303 332.878 155.403C332.978 155.503 333.113 155.559 333.254 155.559C333.395 155.559 333.53 155.503 333.63 155.403C333.729 155.303 333.785 155.168 333.785 155.027V154.164C333.785 154.023 333.729 153.888 333.63 153.788C333.53 153.689 333.395 153.633 333.254 153.633Z" fill="#D0A7D3"></path> <path d="M335.113 155.027V154.164C335.113 154.023 335.057 153.888 334.958 153.788C334.858 153.689 334.723 153.633 334.582 153.633C334.441 153.633 334.306 153.689 334.206 153.788C334.107 153.888 334.051 154.023 334.051 154.164V155.027C334.051 155.168 334.107 155.303 334.206 155.403C334.306 155.503 334.441 155.559 334.582 155.559C334.723 155.559 334.858 155.503 334.958 155.403C335.057 155.303 335.113 155.168 335.113 155.027Z" fill="#D0A7D3"></path> <path d="M325.285 153.633C325.144 153.633 325.009 153.689 324.91 153.788C324.81 153.888 324.754 154.023 324.754 154.164V155.027C324.754 155.168 324.81 155.303 324.91 155.403C325.009 155.503 325.144 155.559 325.285 155.559C325.426 155.559 325.561 155.503 325.661 155.403C325.76 155.303 325.816 155.168 325.816 155.027V154.164C325.816 154.023 325.76 153.888 325.661 153.788C325.561 153.689 325.426 153.633 325.285 153.633Z" fill="#D0A7D3"></path> <path d="M326.613 153.633C326.472 153.633 326.337 153.689 326.238 153.788C326.138 153.888 326.082 154.023 326.082 154.164V155.027C326.082 155.168 326.138 155.303 326.238 155.403C326.337 155.503 326.472 155.559 326.613 155.559C326.754 155.559 326.889 155.503 326.989 155.403C327.089 155.303 327.145 155.168 327.145 155.027V154.164C327.145 154.023 327.089 153.888 326.989 153.788C326.889 153.689 326.754 153.633 326.613 153.633Z" fill="#D0A7D3"></path> <path d="M327.941 153.633C327.801 153.633 327.665 153.689 327.566 153.788C327.466 153.888 327.41 154.023 327.41 154.164V155.027C327.41 155.168 327.466 155.303 327.566 155.403C327.665 155.503 327.801 155.559 327.941 155.559C328.082 155.559 328.217 155.503 328.317 155.403C328.417 155.303 328.473 155.168 328.473 155.027V154.164C328.473 154.023 328.417 153.888 328.317 153.788C328.217 153.689 328.082 153.633 327.941 153.633Z" fill="#D0A7D3"></path> <path d="M329.27 153.633C329.129 153.633 328.994 153.689 328.894 153.788C328.794 153.888 328.738 154.023 328.738 154.164V155.027C328.738 155.168 328.794 155.303 328.894 155.403C328.994 155.503 329.129 155.559 329.27 155.559C329.41 155.559 329.546 155.503 329.645 155.403C329.745 155.303 329.801 155.168 329.801 155.027V154.164C329.801 154.023 329.745 153.888 329.645 153.788C329.546 153.689 329.41 153.633 329.27 153.633Z" fill="#D0A7D3"></path> <path d="M329.402 156.488V157.352C329.402 157.492 329.458 157.628 329.558 157.727C329.658 157.827 329.793 157.883 329.934 157.883C330.074 157.883 330.21 157.827 330.309 157.727C330.409 157.628 330.465 157.492 330.465 157.352V156.488C330.465 156.347 330.409 156.212 330.309 156.113C330.21 156.013 330.074 155.957 329.934 155.957C329.793 155.957 329.658 156.013 329.558 156.113C329.458 156.212 329.402 156.347 329.402 156.488Z" fill="#D0A7D3"></path> <path d="M330.73 156.488V157.352C330.73 157.492 330.786 157.628 330.886 157.727C330.986 157.827 331.121 157.883 331.262 157.883C331.403 157.883 331.538 157.827 331.637 157.727C331.737 157.628 331.793 157.492 331.793 157.352V156.488C331.793 156.347 331.737 156.212 331.637 156.113C331.538 156.013 331.403 155.957 331.262 155.957C331.121 155.957 330.986 156.013 330.886 156.113C330.786 156.212 330.73 156.347 330.73 156.488Z" fill="#D0A7D3"></path> <path d="M332.059 156.488V157.352C332.059 157.492 332.115 157.628 332.214 157.727C332.314 157.827 332.449 157.883 332.59 157.883C332.731 157.883 332.866 157.827 332.965 157.727C333.065 157.628 333.121 157.492 333.121 157.352V156.488C333.121 156.347 333.065 156.212 332.965 156.113C332.866 156.013 332.731 155.957 332.59 155.957C332.449 155.957 332.314 156.013 332.214 156.113C332.115 156.212 332.059 156.347 332.059 156.488Z" fill="#D0A7D3"></path> <path d="M333.387 156.488V157.352C333.387 157.492 333.443 157.628 333.542 157.727C333.642 157.827 333.777 157.883 333.918 157.883C334.059 157.883 334.194 157.827 334.294 157.727C334.393 157.628 334.449 157.492 334.449 157.352V156.488C334.449 156.347 334.393 156.212 334.294 156.113C334.194 156.013 334.059 155.957 333.918 155.957C333.777 155.957 333.642 156.013 333.542 156.113C333.443 156.212 333.387 156.347 333.387 156.488Z" fill="#D0A7D3"></path> <path d="M325.418 156.488V157.352C325.418 157.492 325.474 157.628 325.574 157.727C325.673 157.827 325.808 157.883 325.949 157.883C326.09 157.883 326.225 157.827 326.325 157.727C326.424 157.628 326.48 157.492 326.48 157.352V156.488C326.48 156.347 326.424 156.212 326.325 156.113C326.225 156.013 326.09 155.957 325.949 155.957C325.808 155.957 325.673 156.013 325.574 156.113C325.474 156.212 325.418 156.347 325.418 156.488Z" fill="#D0A7D3"></path> <path d="M326.746 156.488V157.352C326.746 157.492 326.802 157.628 326.902 157.727C327.001 157.827 327.136 157.883 327.277 157.883C327.418 157.883 327.553 157.827 327.653 157.727C327.753 157.628 327.809 157.492 327.809 157.352V156.488C327.809 156.347 327.753 156.212 327.653 156.113C327.553 156.013 327.418 155.957 327.277 155.957C327.136 155.957 327.001 156.013 326.902 156.113C326.802 156.212 326.746 156.347 326.746 156.488Z" fill="#D0A7D3"></path> <path d="M328.074 156.488V157.352C328.074 157.492 328.13 157.628 328.23 157.727C328.329 157.827 328.465 157.883 328.605 157.883C328.746 157.883 328.881 157.827 328.981 157.727C329.081 157.628 329.137 157.492 329.137 157.352V156.488C329.137 156.347 329.081 156.212 328.981 156.113C328.881 156.013 328.746 155.957 328.605 155.957C328.465 155.957 328.329 156.013 328.23 156.113C328.13 156.212 328.074 156.347 328.074 156.488Z" fill="#D0A7D3"></path> <g clip-path="url(#clip0)"> <path d="M245.712 187.583C244.006 185.162 240.528 182.6 236.545 182.239C234.161 179.438 228.475 182.063 225.852 183.506C225.4 183.314 224.902 183.233 224.394 183.284C222.788 183.442 219.679 184.123 216.902 186.899C214.125 189.676 213.445 192.785 213.286 194.391C213.236 194.899 213.317 195.397 213.509 195.849C212.066 198.472 209.44 204.159 212.242 206.542C212.603 210.525 215.164 214.003 217.586 215.709C218.79 216.558 220.375 217.301 221.876 216.878C224.347 216.181 224.34 214.42 224.332 212.381C224.329 211.499 224.326 210.508 224.501 209.425C225.171 209.134 225.744 208.634 226.116 207.973C226.736 206.876 227.187 205.506 227.461 203.897C227.765 203.816 228.021 203.671 228.228 203.464L233.467 198.225C233.675 198.017 233.82 197.761 233.903 197.458C235.51 197.184 236.879 196.733 237.976 196.114C238.637 195.741 239.138 195.168 239.429 194.498C240.511 194.323 241.502 194.326 242.384 194.33C244.423 194.338 246.184 194.344 246.881 191.873C247.222 190.661 246.807 189.138 245.712 187.583ZM223.278 212.385C223.286 214.518 223.224 215.401 221.59 215.863C220.703 216.113 219.465 215.743 218.193 214.847C216.148 213.406 213.993 210.591 213.406 207.308C213.431 207.321 213.456 207.334 213.48 207.347C215.693 208.532 218.246 209.062 220.707 209.433C221.444 209.544 222.199 209.666 222.944 209.706C222.984 209.708 223.393 209.724 223.395 209.701C223.271 210.688 223.275 211.579 223.278 212.385ZM232.721 197.48C232.721 197.48 227.493 202.708 227.483 202.718C227.225 202.976 226.757 202.94 226.429 202.895C225.5 202.768 224.604 202.356 223.769 201.944C221.976 201.061 218.408 198.617 216.767 197.48C216.537 197.32 217.062 197.995 216.902 198.225C216.736 198.465 215.981 198.221 216.22 198.387C218.024 199.638 221.717 202.161 223.713 203.087C224.689 203.54 225.519 203.819 226.211 203.926C226.268 203.934 226.324 203.943 226.382 203.949C226.126 205.337 225.729 206.514 225.198 207.455C224.681 208.372 223.688 208.738 222.678 208.623C219.475 208.279 215.734 207.808 213.06 205.846C212 205.069 211.772 203.514 212.382 201.225C212.817 199.593 213.593 197.944 214.183 196.823C214.262 196.9 214.347 196.973 214.434 197.04C215.04 197.509 215.665 197.98 216.291 198.439C216.52 198.607 216.86 198.555 217.029 198.326C217.201 198.091 217.15 197.761 216.915 197.589C216.504 197.287 216.094 196.981 215.689 196.673C214.964 196.123 214.237 195.501 214.336 194.495C214.481 193.029 215.103 190.19 217.648 187.645C220.193 185.101 223.032 184.478 224.498 184.333C225.08 184.276 225.667 184.498 226.072 184.919C226.489 185.352 226.813 185.863 227.171 186.343C229.462 189.418 231.659 192.794 232.531 195.096C232.683 195.498 232.819 195.927 232.881 196.36C232.932 196.708 232.998 197.203 232.721 197.48ZM237.458 195.195C236.519 195.725 235.344 196.122 233.958 196.377C233.854 195.487 233.44 194.348 232.711 192.934C231.255 190.085 228.846 186.768 227.125 184.537C227.03 184.414 226.934 184.292 226.826 184.18C227.947 183.59 229.596 182.814 231.227 182.379C233.517 181.769 235.072 181.997 235.849 183.056C237.788 185.7 238.284 189.499 238.625 192.675C238.734 193.688 238.376 194.677 237.458 195.195ZM245.865 191.587C245.404 193.221 244.521 193.284 242.388 193.275C241.582 193.272 240.691 193.268 239.704 193.393C239.705 193.38 239.705 193.368 239.706 193.355C239.739 192.868 239.656 192.372 239.597 191.889C239.509 191.172 239.404 190.456 239.279 189.744C238.921 187.702 238.428 185.63 237.498 183.766C237.438 183.644 237.376 183.523 237.311 183.403C240.593 183.99 243.409 186.145 244.85 188.19C245.745 189.462 246.116 190.7 245.865 191.587Z" fill="#C9C2C0"></path> </g> <circle cx="191" cy="92" r="44" fill="#E32422"></circle> <path d="M209.431 88.1641C209.432 88.1608 209.432 88.1576 209.431 88.1543V83.3457C209.432 83.2569 209.411 83.1692 209.373 83.0892C209.334 83.0093 209.278 82.9391 209.208 82.8841L204.951 79.5247C204.848 79.4429 204.719 79.3984 204.587 79.3984H201.631V75.1992C201.63 74.509 201.356 73.8472 200.868 73.3591C200.379 72.8711 199.718 72.5965 199.027 72.5957H180.029C179.338 72.5965 178.677 72.8711 178.188 73.3591C177.7 73.8472 177.426 74.509 177.425 75.1992V86.1484V86.182V109.213H176.156C176 109.213 175.85 109.275 175.74 109.385C175.63 109.495 175.568 109.645 175.568 109.801V111.816C175.568 111.972 175.63 112.122 175.74 112.232C175.85 112.342 176 112.404 176.156 112.404H202.902C202.979 112.404 203.055 112.389 203.127 112.36C203.198 112.33 203.263 112.287 203.317 112.232C203.372 112.178 203.415 112.113 203.445 112.041C203.474 111.97 203.489 111.894 203.489 111.816V109.801C203.489 109.724 203.474 109.647 203.445 109.576C203.415 109.504 203.372 109.44 203.317 109.385C203.263 109.33 203.198 109.287 203.127 109.258C203.055 109.228 202.979 109.213 202.902 109.213H201.631V98.1639H202.367C202.427 98.164 202.485 98.1881 202.528 98.2309C202.571 98.2737 202.595 98.3318 202.595 98.3923V103.63C202.595 104.536 202.955 105.406 203.596 106.047C204.237 106.688 205.107 107.048 206.013 107.048C206.92 107.048 207.789 106.688 208.43 106.047C209.071 105.406 209.431 104.536 209.431 103.63V90.1894C209.432 90.1862 209.432 90.1829 209.431 90.1797V88.1641ZM208.256 88.8984V89.4668V89.4766V89.5918H207.416V88.7519H208.256V88.8887V88.8984ZM208.256 83.6309V87.5762H207.416V84.3233C207.412 84.2327 207.389 84.144 207.349 84.063C207.308 83.9819 207.251 83.9103 207.181 83.853C207.076 83.7662 206.944 83.7187 206.807 83.7186H203.925V82.0345C203.925 82.0235 203.929 82.013 203.929 82.0009V80.5742H204.383L208.256 83.6309ZM202.367 94.9725H201.631V86.1679C201.631 86.1612 201.631 86.1548 201.631 86.1484V82.5898H202.75V84.3065C202.75 84.3837 202.765 84.4602 202.794 84.5315C202.824 84.6029 202.867 84.6677 202.922 84.7223C202.976 84.7769 203.041 84.8202 203.113 84.8497C203.184 84.8792 203.26 84.8944 203.338 84.8944H203.828V85.7812C203.829 86.2043 203.997 86.6099 204.296 86.909C204.595 87.2081 205.001 87.3764 205.424 87.377H206.24V88.8887V88.8984V89.4668V89.4766V103.63C206.24 103.69 206.216 103.747 206.174 103.79C206.131 103.832 206.073 103.856 206.013 103.856C205.953 103.856 205.895 103.832 205.853 103.79C205.81 103.747 205.787 103.69 205.787 103.63V98.3923C205.785 97.4857 205.425 96.6164 204.784 95.9753C204.143 95.3342 203.273 94.9736 202.367 94.9725V94.9725ZM206.24 84.8944V86.2012H205.424C205.312 86.2011 205.206 86.1568 205.127 86.0781C205.048 85.9993 205.004 85.8926 205.004 85.7812V84.8944H206.24ZM202.753 80.5742V81.4141H201.632V80.5742H202.753ZM180.029 73.7715H199.028C199.407 73.7719 199.77 73.9225 200.038 74.1901C200.305 74.4578 200.456 74.8207 200.456 75.1992V86.1582C200.453 86.5349 200.302 86.8952 200.035 87.1608C199.767 87.4264 199.406 87.5756 199.03 87.5762H180.029C179.653 87.5756 179.293 87.4272 179.026 87.1632C178.759 86.8991 178.607 86.5406 178.602 86.1652V80.1005C178.602 80.0948 178.602 80.0898 178.602 80.0844V75.1992C178.603 74.821 178.753 74.4583 179.021 74.1907C179.288 73.9231 179.65 73.7724 180.029 73.7715V73.7715ZM202.314 111.229H176.745V110.389H202.314V111.229ZM178.602 109.213V88.324C179.026 88.6033 179.522 88.7521 180.029 88.7519H199.028C199.536 88.752 200.032 88.6031 200.455 88.3236V109.213H178.602ZM206.015 105.874C205.42 105.873 204.85 105.636 204.429 105.216C204.008 104.795 203.772 104.225 203.771 103.63V98.3923C203.77 98.0201 203.622 97.6631 203.359 97.3999C203.096 97.1367 202.739 96.9886 202.367 96.9881H201.631V96.1483H202.367C202.962 96.1489 203.532 96.3855 203.953 96.8062C204.374 97.2269 204.61 97.7974 204.611 98.3923V103.63C204.611 103.814 204.647 103.996 204.718 104.166C204.788 104.337 204.891 104.491 205.022 104.621C205.152 104.752 205.306 104.855 205.477 104.925C205.647 104.996 205.829 105.032 206.013 105.032C206.197 105.032 206.38 104.996 206.55 104.925C206.72 104.855 206.875 104.752 207.005 104.621C207.135 104.491 207.239 104.337 207.309 104.166C207.38 103.996 207.416 103.814 207.416 103.63V90.7676H208.256V103.63C208.255 104.224 208.019 104.794 207.599 105.215C207.179 105.636 206.609 105.873 206.015 105.874V105.874Z" fill="#FFBBBA"></path> <path d="M180.028 96.9366C179.872 96.9366 179.723 96.9986 179.613 97.1088C179.502 97.2191 179.44 97.3686 179.44 97.5245V99.8761C179.44 100.032 179.502 100.182 179.613 100.292C179.723 100.402 179.872 100.464 180.028 100.464C180.184 100.464 180.334 100.402 180.444 100.292C180.554 100.182 180.616 100.032 180.616 99.8761V97.5245C180.616 97.4473 180.601 97.3709 180.572 97.2995C180.542 97.2282 180.499 97.1633 180.444 97.1087C180.39 97.0541 180.325 97.0108 180.253 96.9813C180.182 96.9518 180.106 96.9366 180.028 96.9366V96.9366Z" fill="#FFBBBA"></path> <path d="M182.044 84.7207H197.013C197.169 84.7207 197.318 84.6588 197.428 84.5485C197.539 84.4383 197.601 84.2887 197.601 84.1328V77.2148C197.601 77.0589 197.539 76.9094 197.428 76.7991C197.318 76.6889 197.169 76.627 197.013 76.627H182.044C181.888 76.627 181.738 76.6889 181.628 76.7991C181.518 76.9094 181.456 77.0589 181.456 77.2148V84.1328C181.456 84.2887 181.518 84.4383 181.628 84.5485C181.738 84.6588 181.888 84.7207 182.044 84.7207V84.7207ZM182.632 77.8027H196.425V83.5449H182.632V77.8027Z" fill="#FFBBBA"></path> <path d="M189.528 94.5472C188.488 94.5472 187.471 94.8557 186.607 95.4335C185.742 96.0113 185.068 96.8326 184.67 97.7936C184.272 98.7545 184.168 99.8118 184.371 100.832C184.573 101.852 185.074 102.789 185.81 103.525C186.545 104.26 187.482 104.761 188.502 104.964C189.522 105.167 190.58 105.062 191.541 104.664C192.502 104.266 193.323 103.592 193.901 102.728C194.479 101.863 194.787 100.846 194.787 99.806C194.786 98.4118 194.231 97.075 193.245 96.0892C192.259 95.1033 190.923 94.5488 189.528 94.5472V94.5472ZM189.528 103.889C188.721 103.889 187.931 103.649 187.26 103.201C186.588 102.752 186.065 102.114 185.756 101.368C185.447 100.622 185.366 99.801 185.524 99.009C185.681 98.217 186.07 97.4894 186.641 96.9184C187.212 96.3474 187.94 95.9586 188.732 95.8011C189.524 95.6436 190.345 95.7245 191.091 96.0336C191.837 96.3427 192.475 96.866 192.923 97.5375C193.372 98.209 193.611 98.9985 193.611 99.806C193.61 100.888 193.179 101.926 192.414 102.691C191.648 103.457 190.611 103.887 189.528 103.888V103.889Z" fill="#FFBBBA"></path> <path d="M189.107 96.5793C188.884 96.8088 186.926 98.8731 186.926 100.607C186.926 101.298 187.2 101.96 187.688 102.448C188.176 102.936 188.839 103.211 189.529 103.211C190.22 103.211 190.882 102.936 191.37 102.448C191.858 101.96 192.133 101.298 192.133 100.607C192.133 98.8731 190.174 96.8088 189.949 96.5793C189.836 96.47 189.685 96.4089 189.528 96.4089C189.371 96.4089 189.22 96.47 189.107 96.5793V96.5793ZM189.529 102.035C189.151 102.035 188.788 101.884 188.52 101.616C188.252 101.349 188.102 100.986 188.101 100.607C188.101 99.7674 188.926 98.5916 189.529 97.871C190.132 98.5929 190.957 99.7674 190.957 100.607C190.956 100.986 190.806 101.349 190.538 101.616C190.27 101.884 189.907 102.035 189.529 102.035H189.529Z" fill="#FFBBBA"></path> <defs> <clipPath id="clip0"> <rect width="36" height="36" fill="white" transform="translate(211 181)"></rect> </clipPath> </defs> </svg> 