<?xml version="1.0" encoding="UTF-8"?> <svg xmlns="http://www.w3.org/2000/svg" width="56" height="60" viewBox="0 0 56 60" fill="none"> <circle opacity="0.1" cx="28" cy="28" r="28" fill="#FECD4E"></circle> <path d="M49.3341 33.3368C49.3341 36.5332 48.561 39.5638 47.2112 42.2515C46.6832 40.3069 45.7598 38.7086 44.4885 37.4593C43.6984 36.6829 42.7856 36.0528 41.7713 35.5596C42.0988 35.5843 42.3907 35.617 42.6255 35.6577L43.4023 35.7923L43.498 35.0098C43.5653 34.4598 43.5977 33.8809 43.5977 33.3054C43.5977 25.2394 36.8806 18.7172 28.6547 18.7172C20.4276 18.7172 13.7091 25.2393 13.7091 33.3054C13.7091 41.3725 20.4261 47.8961 28.6534 47.8961H29.3086H30.2057L30.0467 47.0132C29.9126 46.2686 29.8271 45.5169 29.7906 44.7627C31.8049 47.687 34.7013 50.2307 39.7257 51.3158C41.9691 51.8019 44.1319 52.3108 46.3277 53.4159C47.8575 54.1859 49.4191 55.254 51.0267 56.8275C46.9088 53.9375 43.0616 52.9047 39.4791 52.9046L39.4741 52.9047C37.1497 52.92 35.199 53.0743 33.4485 53.223C33.3218 53.2337 33.1963 53.2445 33.0718 53.2551C31.4693 53.3919 30.0481 53.5133 28.6224 53.5133H28.6211C17.1638 53.5133 7.90942 44.4633 7.90942 33.3368C7.90942 22.2104 17.1651 13.1604 28.6224 13.1604C40.0797 13.1604 49.3341 22.2103 49.3341 33.3368ZM44.0167 42.7379L44.0433 42.7479C44.1744 42.8096 44.3311 42.9707 44.4753 43.278C44.622 43.5906 44.6984 43.9362 44.7226 44.1338L44.7234 44.1402C44.7311 44.199 44.7366 44.2528 44.7404 44.3019C44.6422 44.1859 44.532 44.0374 44.4129 43.8519C44.2203 43.5504 44.0963 43.246 44.0437 42.9979C44.0181 42.8772 44.0137 42.7926 44.0156 42.7375C44.0159 42.7377 44.0163 42.7378 44.0167 42.7379ZM40.6147 46.6829L40.6146 46.683L40.625 46.6915C41.0349 47.0271 41.2362 47.3388 41.3078 47.5676C41.3684 47.7609 41.3423 47.898 41.2599 48.0176C41.1346 48.1551 40.8941 48.281 40.5688 48.281C40.1864 48.281 39.8137 48.1442 39.6024 47.9552L39.5927 47.9465L39.5828 47.9382C39.2729 47.6798 39.0828 47.3405 39.0169 47.0288C38.9497 46.711 39.0206 46.4942 39.1155 46.3813L39.1221 46.3735L39.1285 46.3655C39.1761 46.3055 39.2819 46.2224 39.5396 46.2224C39.829 46.2224 40.2246 46.3516 40.6147 46.6829Z" fill="#FECD4E" fill-opacity="0.3" stroke="#FECD4E" stroke-width="1.5"></path> </svg> 