<?xml version="1.0" encoding="UTF-8"?> <svg xmlns="http://www.w3.org/2000/svg" width="100" height="85" viewBox="0 0 100 85" fill="none"> <path d="M0 0H84C92.8366 0 100 7.16344 100 16V85H85C38.0558 85 0 46.9442 0 0Z" fill="#FECD4E"></path> <path d="M29.0775 43.984H21.3975V40.528H29.0775V43.984ZM39.8233 50.384C36.3033 50.384 33.5619 49.3173 31.5993 47.184L34.1273 44.016C35.6206 45.5733 37.5086 46.352 39.7913 46.352C41.0073 46.352 41.9673 46.0533 42.6713 45.456C43.3966 44.8373 43.7593 44.08 43.7593 43.184C43.7593 42.224 43.4179 41.456 42.7353 40.88C42.0526 40.304 41.1139 40.016 39.9193 40.016C38.1486 40.016 36.6553 40.592 35.4393 41.744L32.2713 40.912V28.656H46.9272V32.656H36.8153V37.872C38.0099 36.6773 39.5779 36.08 41.5193 36.08C43.4179 36.08 45.0286 36.7093 46.3513 37.968C47.6953 39.2267 48.3673 40.9013 48.3673 42.992C48.3673 45.2533 47.5886 47.056 46.0312 48.4C44.4739 49.7227 42.4046 50.384 39.8233 50.384ZM64.38 48.752C63.0147 49.84 61.3613 50.384 59.42 50.384C57.4787 50.384 55.8147 49.84 54.428 48.752C53.0627 47.6427 52.0813 46.2773 51.484 44.656C50.8867 43.0347 50.588 41.264 50.588 39.344C50.588 37.424 50.8867 35.6533 51.484 34.032C52.0813 32.4107 53.0627 31.056 54.428 29.968C55.8147 28.88 57.4787 28.336 59.42 28.336C61.3613 28.336 63.0147 28.88 64.38 29.968C65.7453 31.056 66.7267 32.4107 67.324 34.032C67.9427 35.6533 68.252 37.424 68.252 39.344C68.252 41.264 67.9427 43.0347 67.324 44.656C66.7267 46.2773 65.7453 47.6427 64.38 48.752ZM56.22 44.432C56.9027 45.712 57.9693 46.352 59.42 46.352C60.8707 46.352 61.9267 45.712 62.588 44.432C63.2707 43.152 63.612 41.456 63.612 39.344C63.612 37.232 63.2707 35.5467 62.588 34.288C61.9267 33.008 60.8707 32.368 59.42 32.368C57.9693 32.368 56.9027 33.008 56.22 34.288C55.5373 35.5467 55.196 37.232 55.196 39.344C55.196 41.456 55.5373 43.152 56.22 44.432ZM75.5838 38.96C73.9838 38.96 72.6824 38.4693 71.6798 37.488C70.6771 36.4853 70.1758 35.2267 70.1758 33.712C70.1758 32.176 70.6771 30.896 71.6798 29.872C72.6824 28.848 73.9838 28.336 75.5838 28.336C77.2051 28.336 78.5171 28.848 79.5198 29.872C80.5224 30.896 81.0238 32.176 81.0238 33.712C81.0238 35.2267 80.5224 36.4853 79.5198 37.488C78.5171 38.4693 77.2051 38.96 75.5838 38.96ZM75.9038 50H73.5038L87.1358 28.656H89.5678L75.9038 50ZM91.2318 48.88C90.2291 49.8827 88.9278 50.384 87.3278 50.384C85.7278 50.384 84.4264 49.8827 83.4238 48.88C82.4211 47.8773 81.9198 46.6187 81.9198 45.104C81.9198 43.568 82.4211 42.288 83.4238 41.264C84.4264 40.24 85.7278 39.728 87.3278 39.728C88.9278 39.728 90.2291 40.24 91.2318 41.264C92.2558 42.288 92.7678 43.568 92.7678 45.104C92.7678 46.6187 92.2558 47.8773 91.2318 48.88ZM75.5838 36.464C76.3304 36.464 76.9384 36.2187 77.4078 35.728C77.8771 35.216 78.1118 34.544 78.1118 33.712C78.1118 32.8373 77.8771 32.144 77.4078 31.632C76.9384 31.12 76.3304 30.864 75.5838 30.864C74.8371 30.864 74.2291 31.12 73.7598 31.632C73.2904 32.144 73.0558 32.8373 73.0558 33.712C73.0558 34.5227 73.2904 35.184 73.7598 35.696C74.2504 36.208 74.8584 36.464 75.5838 36.464ZM85.5037 47.152C85.9731 47.6427 86.5811 47.888 87.3278 47.888C88.0744 47.888 88.6824 47.6427 89.1518 47.152C89.6424 46.64 89.8878 45.9573 89.8878 45.104C89.8878 44.2293 89.6424 43.536 89.1518 43.024C88.6824 42.512 88.0744 42.256 87.3278 42.256C86.5811 42.256 85.9731 42.512 85.5037 43.024C85.0344 43.536 84.7998 44.2293 84.7998 45.104C84.7998 45.9573 85.0344 46.64 85.5037 47.152Z" fill="#8B3D91"></path> </svg> 