<?xml version="1.0" encoding="UTF-8"?> <svg xmlns="http://www.w3.org/2000/svg" width="56" height="60" viewBox="0 0 56 60" fill="none"> <circle opacity="0.1" cx="28" cy="28" r="28" fill="#FECD4E"></circle> <path opacity="0.3" d="M44.4548 34.1387V56.2276C44.4548 57.8656 43.1146 59.1562 41.5261 59.1562H14.4238C12.7857 59.1562 11.4951 57.816 11.4951 56.2276V34.1387H44.4548V34.1387Z" fill="#FECD4E"></path> <path d="M44.4551 33.3444H41.0797V24.5088C41.0797 17.6091 35.4706 12 28.5709 12H27.3796C20.4799 12 14.8708 17.6091 14.8708 24.5088V33.3444H11.4954C11.0486 33.3444 10.7012 33.6918 10.7012 34.1386V56.2275C10.7012 58.3123 12.3889 60 14.4737 60H41.5264C43.6112 60 45.2989 58.3123 45.2989 56.2275V34.1386C45.2493 33.6918 44.9018 33.3444 44.4551 33.3444ZM16.5088 24.5088C16.5088 18.5026 21.3734 13.6381 27.3796 13.6381H28.5709C34.5771 13.6381 39.4416 18.5026 39.4416 24.5088V33.3444H36.7115V24.6577C36.7115 20.0414 32.939 16.2689 28.3227 16.2689H27.5781C22.9618 16.2689 19.1893 20.0414 19.1893 24.6577V33.2947H16.4592V24.5088H16.5088ZM20.8273 33.3444V24.6577C20.8273 20.9349 23.8553 17.9069 27.5781 17.9069H28.3227C32.0455 17.9069 35.0735 20.9349 35.0735 24.6577V33.2947H20.8273V33.3444ZM43.6608 34.9328V36.4219H12.2896V34.9328H43.6608ZM41.5264 58.3123H14.424C13.2327 58.3123 12.2896 57.3692 12.2896 56.1779V38.1096H43.6112V56.2275C43.6608 57.3692 42.6681 58.3123 41.5264 58.3123Z" fill="#FECD4E"></path> <path d="M28.1741 40.1943C25.7914 40.1943 23.8059 42.1301 23.8059 44.5624C23.8059 46.6968 25.3447 48.4342 27.3302 48.8313V53.7951C27.3302 54.2418 27.6777 54.5893 28.1244 54.5893C28.5712 54.5893 28.9186 54.2418 28.9186 53.7951V48.8313C30.9041 48.4342 32.4429 46.6968 32.4429 44.5624C32.4926 42.1301 30.5567 40.1943 28.1741 40.1943ZM28.1741 47.2428C26.6849 47.2428 25.444 46.0019 25.444 44.5128C25.444 43.0236 26.6849 41.7827 28.1741 41.7827C29.6632 41.7827 30.9041 43.0236 30.9041 44.5128C30.9041 46.0019 29.6632 47.2428 28.1741 47.2428Z" fill="#FECD4E"></path> </svg> 